<svg width="717" height="834" viewBox="0 0 717 834" fill="none" xmlns="http://www.w3.org/2000/svg">
<path d="M304 207L355.962 237V297L304 327L252.038 297V237L304 207Z" fill="white" fill-opacity="0.2"/>
<path d="M597 714L648.962 744V804L597 834L545.038 804V744L597 714Z" fill="white" fill-opacity="0.2"/>
<path d="M419 414L470.962 444V504L419 534L367.038 504V444L419 414Z" fill="white" fill-opacity="0.2"/>
<path d="M540 618L591.962 648V708L540 738L488.038 708V648L540 618Z" fill="white" fill-opacity="0.2"/>
<path d="M597 517L648.962 547V607L597 637L545.038 607V547L597 517Z" fill="white" fill-opacity="0.2"/>
<path d="M476 517L527.962 547V607L476 637L424.038 607V547L476 517Z" fill="white" fill-opacity="0.2"/>
<path d="M477 311L528.962 341V401L477 431L425.038 401V341L477 311Z" fill="white" fill-opacity="0.2"/>
<path d="M361 105L412.962 135V195L361 225L309.038 195V135L361 105Z" fill="white" fill-opacity="0.2"/>
<path d="M417 0L468.962 30V90L417 120L365.038 90V30L417 0Z" fill="white" fill-opacity="0.2"/>
<path d="M180 0L231.962 30V90L180 120L128.038 90V30L180 0Z" fill="white" fill-opacity="0.2"/>
<path d="M601 311L652.962 341V401L601 431L549.038 401V341L601 311Z" fill="white" fill-opacity="0.2"/>
<path d="M419 207L470.962 237V297L419 327L367.038 297V237L419 207Z" fill="white" fill-opacity="0.2"/>
<path d="M597 105L648.962 135V195L597 225L545.038 195V135L597 105Z" fill="white" fill-opacity="0.2"/>
<path d="M534 415L585.962 445V505L534 535L482.038 505V445L534 415Z" fill="white" fill-opacity="0.2"/>
<path d="M476 105L527.962 135V195L476 225L424.038 195V135L476 105Z" fill="white" fill-opacity="0.2"/>
<path d="M529 207L580.962 237V297L529 327L477.038 297V237L529 207Z" fill="white" fill-opacity="0.2"/>
<path d="M657 618L708.962 648V708L657 738L605.038 708V648L657 618Z" fill="white" fill-opacity="0.2"/>
<path d="M657 415L708.962 445V505L657 535L605.038 505V445L657 415Z" fill="white" fill-opacity="0.2"/>
<path d="M652 207L703.962 237V297L652 327L600.038 297V237L652 207Z" fill="white" fill-opacity="0.2"/>
<path d="M652 0L703.962 30V90L652 120L600.038 90V30L652 0Z" fill="white" fill-opacity="0.2"/>
<path d="M532 0L583.962 30V90L532 120L480.038 90V30L532 0Z" fill="white" fill-opacity="0.2"/>
<path d="M244 105L295.962 135V195L244 225L192.038 195V135L244 105Z" fill="white" fill-opacity="0.2"/>
<path d="M68.5385 135.289L120 105.577L171.462 135.289V194.711L120 224.423L68.5385 194.711V135.289Z" stroke="white" stroke-opacity="0.2"/>
<path d="M129.538 243.289L181 213.577L232.462 243.289V302.711L181 332.423L129.538 302.711V243.289Z" stroke="white" stroke-opacity="0.2"/>
<path d="M8.53848 30.2887L60 0.57735L111.462 30.2887V89.7113L60 119.423L8.53848 89.7113V30.2887Z" stroke="white" stroke-opacity="0.2"/>
<path d="M300 0L351.962 30V90L300 120L248.038 90V30L300 0Z" fill="white" fill-opacity="0.2"/>
</svg>
