<svg width="717" height="834" viewBox="0 0 717 834" fill="none" xmlns="http://www.w3.org/2000/svg">
<path d="M413 207L361.038 237V297L413 327L464.962 297V237L413 207Z" fill="#44AFE4" fill-opacity="0.2"/>
<path d="M120 714L68.0385 744V804L120 834L171.962 804V744L120 714Z" fill="#44AFE4" fill-opacity="0.2"/>
<path d="M298 414L246.038 444V504L298 534L349.962 504V444L298 414Z" fill="#44AFE4" fill-opacity="0.2"/>
<path d="M177 618L125.038 648V708L177 738L228.962 708V648L177 618Z" fill="#44AFE4" fill-opacity="0.2"/>
<path d="M120 517L68.0385 547V607L120 637L171.962 607V547L120 517Z" fill="#44AFE4" fill-opacity="0.2"/>
<path d="M241 517L189.038 547V607L241 637L292.962 607V547L241 517Z" fill="#44AFE4" fill-opacity="0.2"/>
<path d="M240 311L188.038 341V401L240 431L291.962 401V341L240 311Z" fill="#44AFE4" fill-opacity="0.2"/>
<path d="M356 105L304.038 135V195L356 225L407.962 195V135L356 105Z" fill="#44AFE4" fill-opacity="0.2"/>
<path d="M300 0L248.038 30V90L300 120L351.962 90V30L300 0Z" fill="#44AFE4" fill-opacity="0.2"/>
<path d="M537 0L485.038 30V90L537 120L588.962 90V30L537 0Z" fill="#44AFE4" fill-opacity="0.2"/>
<path d="M116 311L64.0385 341V401L116 431L167.962 401V341L116 311Z" fill="#44AFE4" fill-opacity="0.2"/>
<path d="M298 207L246.038 237V297L298 327L349.962 297V237L298 207Z" fill="#44AFE4" fill-opacity="0.2"/>
<path d="M120 105L68.0385 135V195L120 225L171.962 195V135L120 105Z" fill="#44AFE4" fill-opacity="0.2"/>
<path d="M183 415L131.038 445V505L183 535L234.962 505V445L183 415Z" fill="#44AFE4" fill-opacity="0.2"/>
<path d="M241 105L189.038 135V195L241 225L292.962 195V135L241 105Z" fill="#44AFE4" fill-opacity="0.2"/>
<path d="M188 207L136.038 237V297L188 327L239.962 297V237L188 207Z" fill="#44AFE4" fill-opacity="0.2"/>
<path d="M60 618L8.03848 648V708L60 738L111.962 708V648L60 618Z" fill="#44AFE4" fill-opacity="0.2"/>
<path d="M60 415L8.03848 445V505L60 535L111.962 505V445L60 415Z" fill="#44AFE4" fill-opacity="0.2"/>
<path d="M65 207L13.0385 237V297L65 327L116.962 297V237L65 207Z" fill="#44AFE4" fill-opacity="0.2"/>
<path d="M65 0L13.0385 30V90L65 120L116.962 90V30L65 0Z" fill="#44AFE4" fill-opacity="0.2"/>
<path d="M185 0L133.038 30V90L185 120L236.962 90V30L185 0Z" fill="#44AFE4" fill-opacity="0.2"/>
<path d="M473 105L421.038 135V195L473 225L524.962 195V135L473 105Z" fill="#44AFE4" fill-opacity="0.2"/>
<path d="M648.462 135.289L597 105.577L545.538 135.289V194.711L597 224.423L648.462 194.711V135.289Z" stroke="#44AFE4" stroke-opacity="0.2"/>
<path d="M587.462 243.289L536 213.577L484.538 243.289V302.711L536 332.423L587.462 302.711V243.289Z" stroke="#44AFE4" stroke-opacity="0.2"/>
<path d="M708.462 30.2887L657 0.57735L605.538 30.2887V89.7113L657 119.423L708.462 89.7113V30.2887Z" stroke="#44AFE4" stroke-opacity="0.2"/>
<path d="M417 0L365.038 30V90L417 120L468.962 90V30L417 0Z" fill="#44AFE4" fill-opacity="0.2"/>
</svg>
