<svg width="561" height="479" viewBox="0 0 561 479" fill="none" xmlns="http://www.w3.org/2000/svg">
<g clip-path="url(#clip0)">
<path opacity="0.18" d="M549.995 322.338C545.917 338.407 538.846 354.444 532.65 368.746C509.111 422.75 469.39 459.682 407.196 452.133C377.222 448.486 347.885 438.421 317.704 439.393C288.829 440.284 261.34 451.162 233.914 460.223C182.949 477.089 126.521 487.887 76.1132 469.317C25.7054 450.748 -13.4901 393.622 4.44331 342.978C18.395 303.45 62.0181 276.934 66.5572 235.272C72.5297 181.124 8.4409 134.414 21.9626 81.5719C27.7121 59.3236 46.2189 42.7607 65.8246 30.8164C110.865 3.2807 166.242 -5.81292 217.988 3.55144C267.201 12.3903 308.148 53.8292 357.744 55.7403C389.725 56.9506 420.495 38.7793 452.348 41.7733C491.751 45.5796 520.642 80.473 539.069 115.526C545.001 126.468 549.962 137.91 553.897 149.718C561.553 173.783 563.107 199.373 558.42 224.187C553.642 249.669 554.215 273.557 553.482 299.692C553.161 307.346 551.991 314.941 549.995 322.338Z" fill="#3DAFE4"/>
<path d="M208.671 425.521C206.728 426.127 204.546 427.114 204.052 429.041C210.168 432.927 217.733 433.819 224.964 433.628C232.194 433.436 239.409 432.162 246.656 432.115C256.212 432.115 266.978 433.819 274.655 428.022C271.245 425.863 267.331 424.633 263.299 424.454C264.717 415.536 214.341 423.754 208.671 425.521Z" fill="url(#paint0_linear)"/>
<path d="M85.8924 319.28C83.3123 319.28 79.7447 320.586 80.3818 323.087L198.127 332.642C211.984 333.773 225.856 334.888 239.776 334.888C260.799 334.888 281.726 332.308 302.702 331.097C322.451 329.967 342.232 330.046 361.997 330.142C380.296 330.237 402.801 333.534 420.575 328.74C423.25 328.024 425.942 325.874 425.767 323.118C425.687 321.844 425.018 320.523 425.512 319.344C425.799 318.766 426.254 318.288 426.818 317.974C430.465 315.729 435.116 317.481 439.32 318.404C446.013 319.859 453.002 318.971 459.117 315.888C460.264 315.411 461.24 314.601 461.92 313.563C462.245 313.039 462.362 312.412 462.25 311.806C462.139 311.2 461.805 310.657 461.315 310.282C460.82 310.038 460.275 309.912 459.723 309.916L423.681 307.113C422.35 306.907 420.989 307.027 419.715 307.463C418.297 308.085 418.377 309.741 417.23 310.426C415.367 311.525 411.13 310.935 408.996 311.063C403.533 311.365 398.07 311.668 392.592 311.939C381.687 312.459 370.762 312.899 359.815 313.26C337.517 314.009 315.109 314.455 292.764 314.853C248.567 315.57 204.355 315.952 160.174 317.656C135.408 318.58 110.658 318.739 85.8924 319.28Z" fill="url(#paint1_linear)"/>
<path d="M176.435 73.9115C174.363 73.1916 172.099 73.2482 170.065 74.0708C168.752 74.5389 167.553 75.2767 166.543 76.2368C165.534 77.1969 164.737 78.3578 164.204 79.6448C164.193 79.8121 164.147 79.9753 164.069 80.1233C163.99 80.2714 163.881 80.401 163.748 80.5035C163.615 80.606 163.462 80.6791 163.299 80.7177C163.136 80.7564 162.967 80.7598 162.802 80.7278C160.484 80.7224 158.248 81.5796 156.527 83.1326C154.52 84.964 154.52 87.2096 154.25 89.8373C153.921 89.6721 153.558 89.586 153.19 89.586C152.823 89.586 152.46 89.6721 152.131 89.8373C151.475 90.1608 150.878 90.5914 150.363 91.1114C149.485 91.8169 148.782 92.7163 148.309 93.7391C147.672 95.4751 148.388 97.3861 148.42 99.2335C148.432 99.3163 148.425 99.4005 148.4 99.4803C148.375 99.5601 148.333 99.6335 148.277 99.6954C148.212 99.7234 148.141 99.7379 148.07 99.7379C147.999 99.7379 147.928 99.7234 147.863 99.6954C147.369 99.5998 146.923 99.345 146.43 99.2972C145.852 99.3027 145.294 99.5092 144.853 99.8812C144.411 100.253 144.112 100.768 144.009 101.336C143.821 102.476 143.881 103.644 144.184 104.76C144.48 105.876 144.447 107.054 144.088 108.152C143.707 108.873 143.206 109.525 142.607 110.079C140.88 111.689 139.756 113.841 139.422 116.179C139.328 117.308 139.632 118.435 140.282 119.364C140.615 119.822 141.062 120.187 141.579 120.421C142.095 120.656 142.663 120.752 143.228 120.702C145.872 120.351 146.796 116.64 149.312 115.765C151.829 114.889 154.648 111.926 156.272 109.585C157.578 107.706 158.852 105.524 161.05 104.808C161.774 104.654 162.471 104.396 163.121 104.043C163.553 103.706 163.911 103.283 164.172 102.801C165.082 101.459 165.785 99.9881 166.258 98.4373C167.055 95.3795 166.258 91.9395 167.739 89.1207C168.162 88.312 168.751 87.6018 169.467 87.0365C170.184 86.4711 171.011 86.0634 171.896 85.84C172.645 85.6488 173.489 85.6011 174.174 85.394C175.04 85.1441 175.858 84.7511 176.595 84.2314C177.563 83.6744 178.397 82.9101 179.036 81.9933C179.674 81.0765 180.103 80.0298 180.29 78.9282C180.433 76.6826 178.41 74.676 176.435 73.9115Z" fill="#FF681C"/>
<path d="M182.949 77.6859C183.745 77.993 184.405 78.5739 184.811 79.3241C185.217 80.0744 185.342 80.9448 185.163 81.7788C184.891 82.4532 184.484 83.0654 183.969 83.5784L181.086 86.7636L179.891 82.3362C179.768 81.5054 179.356 80.7445 178.729 80.1862C178.319 79.9515 177.855 79.8281 177.383 79.8281C176.911 79.8281 176.447 79.9515 176.037 80.1862C175.193 80.6162 174.444 81.2851 173.696 81.7788C173.489 81.9062 173.202 82.0495 172.979 81.9221C172.756 81.7947 172.724 81.3329 172.836 81.0144C174.206 77.224 179.445 76.1729 182.949 77.6859Z" fill="#FF681C"/>
<path d="M184.908 197.496C184.996 198.987 185.492 200.425 186.342 201.652C187.632 203.245 189.782 204.041 191.566 205.204C191.749 205.297 191.91 205.429 192.037 205.592C192.163 205.754 192.253 205.943 192.298 206.143C192.288 206.337 192.22 206.524 192.104 206.68C191.988 206.836 191.828 206.954 191.645 207.019C191.267 207.126 190.871 207.153 190.483 207.099C188.663 206.813 186.828 206.638 184.988 206.573C184.064 206.573 182.997 206.669 182.408 205.952C182.028 205.345 181.897 204.615 182.041 203.914C182.205 201.28 181.99 198.636 181.404 196.062C181.209 195.434 181.139 194.774 181.197 194.119C181.257 193.817 181.395 193.535 181.597 193.301C181.799 193.068 182.059 192.892 182.351 192.791C182.642 192.689 182.955 192.666 183.259 192.723C183.562 192.78 183.845 192.916 184.08 193.116C185.131 194.024 184.781 196.269 184.908 197.496Z" fill="#FCBDBA"/>
<path d="M155.444 207.354C155.228 208.831 155.415 210.338 155.985 211.717C156.925 213.613 158.884 214.743 160.397 216.24C160.561 216.366 160.694 216.527 160.785 216.712C160.876 216.897 160.923 217.101 160.923 217.307C160.876 217.495 160.773 217.664 160.628 217.792C160.483 217.92 160.302 218.001 160.11 218.024C159.722 218.064 159.33 218.015 158.964 217.881C157.233 217.249 155.468 216.717 153.676 216.288C152.768 216.129 151.701 215.97 151.271 215.173C151.01 214.508 151.01 213.768 151.271 213.103C151.963 210.55 152.284 207.912 152.227 205.267C152.162 204.614 152.227 203.953 152.418 203.325C152.538 203.04 152.73 202.792 152.975 202.605C153.221 202.417 153.511 202.298 153.817 202.258C154.123 202.217 154.434 202.258 154.719 202.375C155.005 202.493 155.255 202.683 155.444 202.926C156.352 203.993 155.555 206.127 155.444 207.354Z" fill="#FCBDBA"/>
<path d="M149.647 135.688C149.647 135.688 164.841 158.239 174.795 164.975C174.604 167.23 174.652 169.499 174.938 171.744C175.448 175.391 177.216 178.592 177.789 182.175L179.7 194.231C179.78 194.773 179.939 195.425 180.465 195.617C180.781 195.718 181.12 195.718 181.436 195.617L185.641 194.47C185.389 187.226 185.543 179.974 186.103 172.747C186.448 169.825 186.522 166.876 186.326 163.94C185.625 157.57 180.401 151.884 176.77 146.772C174.588 143.683 172.247 139.064 169.189 136.723C166.64 134.78 163.041 135.704 159.84 136.022C157.439 136.251 155.017 136.079 152.673 135.513C152.194 135.288 151.666 135.187 151.138 135.217C150.609 135.248 150.097 135.41 149.647 135.688Z" fill="#473F47"/>
<path d="M143.865 135.544C143.865 135.544 149.774 162.093 156.607 171.999C155.614 174.038 154.829 176.172 154.265 178.369C153.888 180.167 153.67 181.995 153.612 183.831L152.243 206C154.36 206.111 156.48 205.841 158.502 205.204L166.274 185.663C167.758 182.55 168.634 179.183 168.854 175.741C168.854 169.084 162.484 144.781 161.735 143.555C160.063 140.8 156.384 140.37 153.294 139.478C150.974 138.822 148.782 137.778 146.812 136.389C145.84 135.783 144.964 135.194 143.865 135.544Z" fill="#473F47"/>
<path d="M198.414 114.873C201.652 116.367 205.245 116.919 208.782 116.465C209.82 116.179 210.907 116.125 211.968 116.306C211.506 116.959 211.06 117.899 211.713 118.456C211.913 118.587 212.143 118.663 212.382 118.679C213.241 118.79 214.114 118.697 214.93 118.408C215.315 118.217 215.742 118.124 216.172 118.137C216.552 118.232 216.878 118.472 217.081 118.806C217.284 119.14 217.347 119.541 217.255 119.921C217.03 120.679 216.53 121.326 215.854 121.737C214.76 122.461 213.493 122.881 212.183 122.954C210.873 123.027 209.567 122.75 208.4 122.151C207.731 121.784 207.11 121.323 206.425 120.956C205.108 120.356 203.715 119.938 202.284 119.714C198.097 118.847 193.982 117.666 189.973 116.179C189.366 116.034 188.794 115.767 188.293 115.395C187.792 115.023 187.372 114.552 187.058 114.013C186.246 112.006 187.743 108.646 190.132 109.952C192.903 111.56 195.404 113.63 198.414 114.873Z" fill="#FCBDBA"/>
<path d="M178.633 103.438C183.363 106.53 188.638 108.692 194.178 109.808C194.417 109.808 194.703 109.968 194.767 110.207C194.792 110.369 194.752 110.535 194.655 110.668C193.524 112.945 192.094 115.061 190.403 116.959C190.222 117.2 189.987 117.396 189.718 117.532C189.454 117.61 189.176 117.633 188.902 117.6C188.629 117.567 188.364 117.479 188.126 117.341C184.547 115.908 181.043 114.315 177.614 112.564C174.562 111.225 171.843 109.229 169.651 106.719C168.557 105.416 167.91 103.798 167.803 102.1C167.803 100.221 169.523 96.8448 171.896 97.7685C172.963 98.1826 173.903 99.5044 174.715 100.253C175.955 101.394 177.263 102.458 178.633 103.438Z" fill="#3DAFE4"/>
<path d="M178.633 103.438C183.363 106.53 188.638 108.692 194.178 109.808C194.417 109.808 194.703 109.968 194.767 110.207C194.792 110.369 194.752 110.535 194.655 110.668C193.524 112.945 192.094 115.061 190.403 116.959C190.222 117.2 189.987 117.396 189.718 117.532C189.454 117.61 189.176 117.633 188.902 117.6C188.629 117.567 188.364 117.479 188.126 117.341C184.547 115.908 181.043 114.315 177.614 112.564C174.562 111.225 171.843 109.229 169.651 106.719C168.557 105.416 167.91 103.798 167.803 102.1C167.803 100.221 169.523 96.8448 171.896 97.7685C172.963 98.1826 173.903 99.5044 174.715 100.253C175.955 101.394 177.263 102.458 178.633 103.438Z" fill="url(#paint2_linear)"/>
<path d="M245.302 93.9463C246.153 95.0193 246.661 96.3237 246.76 97.6895C246.858 99.0552 246.543 100.419 245.856 101.603C245.168 102.788 244.14 103.737 242.905 104.329C241.67 104.92 240.285 105.126 238.931 104.919C238.931 104.919 231.398 105.094 233.102 112.197L247.436 130.448L229.184 144.781C222.081 146.485 221.906 138.953 221.906 138.953C222.101 137.6 221.886 136.221 221.289 134.992C220.691 133.763 219.74 132.742 218.556 132.059C217.372 131.377 216.011 131.065 214.649 131.164C213.286 131.263 211.984 131.768 210.912 132.614C209.839 133.46 209.045 134.608 208.631 135.91C208.218 137.212 208.204 138.609 208.592 139.918C208.98 141.228 209.752 142.392 210.808 143.259C211.864 144.126 213.155 144.656 214.516 144.781C220.998 146.915 218.482 153.222 218.482 153.222L200.23 167.555L163.137 120.463L181.213 106.13C188.317 104.425 188.492 111.958 188.492 111.958C188.323 113.075 188.434 114.216 188.815 115.28C189.196 116.343 189.836 117.295 190.676 118.05C191.517 118.804 192.531 119.339 193.629 119.604C194.727 119.87 195.874 119.858 196.966 119.571C198.059 119.283 199.063 118.729 199.888 117.957C200.713 117.186 201.333 116.221 201.693 115.151C202.053 114.08 202.141 112.937 201.95 111.823C201.758 110.71 201.293 109.662 200.596 108.773C200.015 108.043 199.292 107.438 198.471 106.994C197.65 106.551 196.747 106.278 195.818 106.193C189.4 104.075 191.916 97.7048 191.916 97.7048L210.343 83.1646L224.677 101.431C224.677 101.431 231.048 103.948 233.118 97.4659C233.255 96.1086 233.795 94.8233 234.668 93.7755C235.542 92.7277 236.709 91.9654 238.02 91.5868C239.331 91.2081 240.725 91.2305 242.023 91.6511C243.32 92.0716 244.463 92.871 245.302 93.9463Z" fill="#3DAFE4"/>
<path d="M245.302 93.9463C246.153 95.0193 246.661 96.3237 246.76 97.6895C246.858 99.0552 246.543 100.419 245.856 101.603C245.168 102.788 244.14 103.737 242.905 104.329C241.67 104.92 240.285 105.126 238.931 104.919C238.931 104.919 231.398 105.094 233.102 112.197L247.436 130.448L229.184 144.781C222.081 146.485 221.906 138.953 221.906 138.953C222.101 137.6 221.886 136.221 221.289 134.992C220.691 133.763 219.74 132.742 218.556 132.059C217.372 131.377 216.011 131.065 214.649 131.164C213.286 131.263 211.984 131.768 210.912 132.614C209.839 133.46 209.045 134.608 208.631 135.91C208.218 137.212 208.204 138.609 208.592 139.918C208.98 141.228 209.752 142.392 210.808 143.259C211.864 144.126 213.155 144.656 214.516 144.781C220.998 146.915 218.482 153.222 218.482 153.222L200.23 167.555L163.137 120.463L181.213 106.13C188.317 104.425 188.492 111.958 188.492 111.958C188.323 113.075 188.434 114.216 188.815 115.28C189.196 116.343 189.836 117.295 190.676 118.05C191.517 118.804 192.531 119.339 193.629 119.604C194.727 119.87 195.874 119.858 196.966 119.571C198.059 119.283 199.063 118.729 199.888 117.957C200.713 117.186 201.333 116.221 201.693 115.151C202.053 114.08 202.141 112.937 201.95 111.823C201.758 110.71 201.293 109.662 200.596 108.773C200.015 108.043 199.292 107.438 198.471 106.994C197.65 106.551 196.747 106.278 195.818 106.193C189.4 104.075 191.916 97.7048 191.916 97.7048L210.343 83.1646L224.677 101.431C224.677 101.431 231.048 103.948 233.118 97.4659C233.255 96.1086 233.795 94.8233 234.668 93.7755C235.542 92.7277 236.709 91.9654 238.02 91.5868C239.331 91.2081 240.725 91.2305 242.023 91.6511C243.32 92.0716 244.463 92.871 245.302 93.9463Z" fill="url(#paint3_linear)"/>
<path d="M184.988 135.481C188.89 138.666 192.951 142.09 197.729 142.918C198.649 143.124 199.6 143.144 200.527 142.977C201.454 142.81 202.339 142.46 203.128 141.947C203.401 141.784 203.623 141.549 203.769 141.268C203.916 140.987 203.98 140.67 203.957 140.354C203.781 139.574 202.826 139.303 202.045 139.16C198.395 138.66 194.89 137.402 191.757 135.465C190.595 134.642 189.493 133.737 188.46 132.757L180.704 125.846C180.609 125.73 180.49 125.638 180.355 125.574C180.22 125.511 180.072 125.478 179.923 125.479C179.605 125.479 179.414 125.846 179.27 126.132C178.789 127.11 178.426 128.142 178.187 129.206C177.948 130.368 178.187 130.528 179.191 131.197C181.197 132.556 183.13 133.984 184.988 135.481Z" fill="url(#paint4_linear)"/>
<path d="M188.587 129.652C191.286 132.013 194.6 133.559 198.143 134.111C199.197 134.125 200.236 134.37 201.185 134.828C200.532 135.321 199.832 136.165 200.325 136.818C200.484 137 200.687 137.137 200.915 137.216C201.708 137.555 202.569 137.708 203.431 137.662C203.857 137.597 204.293 137.63 204.705 137.758C204.872 137.855 205.017 137.984 205.134 138.137C205.25 138.291 205.335 138.466 205.384 138.652C205.433 138.839 205.445 139.033 205.418 139.224C205.392 139.415 205.328 139.598 205.231 139.765C204.815 140.439 204.152 140.925 203.383 141.118C202.132 141.513 200.799 141.564 199.521 141.267C198.244 140.97 197.069 140.336 196.121 139.43C195.563 138.889 195.101 138.268 194.528 137.742C193.432 136.797 192.21 136.009 190.897 135.401C187.119 133.394 183.499 131.105 180.067 128.553C179.525 128.245 179.051 127.832 178.673 127.336C178.295 126.841 178.022 126.274 177.869 125.67C177.646 123.504 180.019 120.685 181.962 122.628C184.223 124.922 186.055 127.549 188.587 129.652Z" fill="#FCBDBA"/>
<path d="M143.865 138.953C144.151 139.294 144.51 139.567 144.917 139.749C146.519 140.663 148.185 141.461 149.902 142.138C154.362 143.734 159.244 143.695 163.678 142.026C165.452 141.388 167.117 140.48 168.615 139.335C169.184 138.948 169.662 138.442 170.017 137.854C170.44 136.893 170.572 135.831 170.399 134.796C170.001 129.429 169.412 123.887 170.399 118.679C170.716 116.89 171.251 115.146 171.992 113.487C173.281 111.223 174.348 108.839 175.177 106.368C175.461 104.85 175.41 103.288 175.028 101.792C174.646 100.295 173.941 98.9005 172.963 97.7047C170.893 95.061 167.102 92.7199 163.758 93.9144C159.894 95.37 156.544 97.9285 154.122 101.272C151.482 105.016 149.39 109.119 147.911 113.455C147.274 115.159 146.653 116.863 146.159 118.615C145.104 122.853 144.422 127.175 144.12 131.531C143.945 133.347 143.786 135.162 143.595 136.978C143.444 137.647 143.54 138.348 143.865 138.953Z" fill="#3DAFE4"/>
<path d="M163.678 142.026C165.452 141.388 167.117 140.48 168.615 139.335C169.184 138.948 169.662 138.442 170.017 137.854C170.44 136.893 170.572 135.831 170.399 134.796C170.001 129.429 169.412 123.887 170.399 118.679C169.762 118.042 169.045 117.469 168.345 116.895C166.752 115.589 164.458 113.009 162.149 113.185C162.707 115.621 163.153 118.106 163.487 120.59C163.821 123.074 163.694 125.654 164.092 128.107C164.62 132.447 164.519 136.84 163.79 141.15C163.722 141.437 163.684 141.731 163.678 142.026Z" fill="url(#paint5_linear)"/>
<path d="M183.061 121.291C183.185 121.354 183.296 121.442 183.386 121.548C183.476 121.655 183.544 121.779 183.586 121.912C183.591 122.177 183.494 122.433 183.316 122.629C181.868 124.671 180.054 126.426 177.964 127.804C177.763 127.965 177.52 128.064 177.264 128.091C176.97 128.06 176.695 127.931 176.483 127.725C173.298 125.288 170.112 122.947 167.007 120.399C164.998 118.974 163.225 117.244 161.751 115.271C160.668 113.49 159.842 111.565 159.298 109.553C157.403 103.581 163.137 100.985 166.975 105.365C172.04 111.162 176.658 116.816 183.061 121.291Z" fill="#3DAFE4"/>
<path d="M182.28 206.175C182.197 205.977 182.168 205.761 182.196 205.548C182.224 205.336 182.308 205.134 182.44 204.965C182.79 204.63 183.363 204.79 183.809 204.965C184.794 205.442 185.824 205.821 186.883 206.096C187.95 206.376 189.083 206.257 190.069 205.761C190.61 205.443 191.136 204.965 191.757 205.013C192.07 205.059 192.368 205.173 192.633 205.347C193.589 205.843 194.615 206.192 195.675 206.382C196.121 206.42 196.552 206.562 196.933 206.796C197.048 206.877 197.132 206.995 197.172 207.131C197.172 207.449 196.869 207.688 196.567 207.8C193.254 209.09 189.543 208.612 186.007 208.23C185.611 208.174 185.209 208.174 184.813 208.23C184.223 208.341 183.507 208.644 183.013 208.23C182.59 207.622 182.337 206.913 182.28 206.175Z" fill="#473F47"/>
<path d="M150.825 215.253C150.773 215.047 150.774 214.831 150.827 214.625C150.88 214.419 150.983 214.23 151.128 214.074C151.526 213.788 152.068 214.074 152.498 214.25C153.423 214.838 154.398 215.344 155.412 215.762C156.44 216.144 157.57 216.144 158.598 215.762C159.171 215.524 159.744 215.11 160.365 215.237C160.667 215.325 160.948 215.471 161.194 215.667C162.071 216.309 163.043 216.809 164.076 217.148C164.52 217.24 164.935 217.436 165.287 217.721C165.338 217.765 165.38 217.818 165.411 217.878C165.441 217.939 165.458 218.004 165.462 218.072C165.462 218.39 165.112 218.581 164.793 218.661C161.337 219.537 157.722 218.661 154.265 217.785C153.877 217.672 153.475 217.613 153.071 217.61C152.482 217.61 151.733 217.865 151.287 217.323C150.965 216.682 150.806 215.971 150.825 215.253Z" fill="#473F47"/>
<path d="M180.321 88.6109C180.051 89.4868 179.78 90.3628 179.557 91.2546C179.304 92.5848 178.953 93.8943 178.506 95.1724C178.279 95.8097 177.916 96.3903 177.443 96.8742C176.971 97.3581 176.398 97.7337 175.766 97.9753C175.122 98.1812 174.423 98.1306 173.814 97.834C173.206 97.5373 172.736 97.0174 172.501 96.3827C171.737 96.5579 171.466 97.4975 171.482 98.2938C171.61 99.0728 171.464 99.8722 171.068 100.555C170.351 101.399 168.95 101.049 168.01 100.444C166.588 99.4852 165.482 98.126 164.832 96.5383C164.183 94.9506 164.02 93.206 164.363 91.5253C165.143 87.9739 165.112 83.7217 167.134 80.648C167.861 79.6108 168.787 78.7284 169.858 78.0521C170.796 77.365 171.891 76.9217 173.043 76.7621C173.85 76.7148 174.659 76.7791 175.448 76.9532C178.824 77.5266 181.691 78.0203 181.707 81.8902C181.603 84.1896 181.136 86.458 180.321 88.6109Z" fill="#FCBDBA"/>
<path d="M176.165 82.3523C175.639 82.3523 175.034 82.2249 174.572 82.5434C174.11 82.862 174.078 83.5786 173.791 84.136C173.234 85.1712 171.817 85.3145 170.749 85.856C170.103 86.2019 169.565 86.7195 169.194 87.3517C168.823 87.984 168.634 88.7064 168.647 89.4393C168.668 88.9704 168.552 88.5056 168.313 88.1015C168.249 88.0058 168.166 87.9241 168.07 87.8614C167.974 87.7987 167.865 87.7563 167.752 87.737C167.639 87.7176 167.523 87.7216 167.411 87.7486C167.299 87.7757 167.194 87.8254 167.102 87.8945C166.959 88.0647 166.875 88.2773 166.863 88.4997C166.82 88.9545 166.894 89.4128 167.078 89.831C167.262 90.2491 167.55 90.6132 167.915 90.8886C167.584 91.5715 167.065 92.1456 166.419 92.5435C165.772 92.9413 165.026 93.1462 164.267 93.1341C163.788 93.1455 163.32 92.9876 162.945 92.6882C162.71 92.4459 162.535 92.1511 162.436 91.8282C161.528 89.28 162.914 86.5567 163.248 83.8653C163.28 82.9149 163.435 81.9727 163.71 81.0623C164.005 80.4193 164.409 79.832 164.904 79.3264C166.391 77.5411 168.359 76.2201 170.574 75.5202C172.708 74.9309 176.945 75.2335 178.617 76.9216C178.997 77.4047 179.236 77.9826 179.311 78.5924C179.385 79.2022 179.29 79.8206 179.037 80.3804C178.784 80.9403 178.383 81.4201 177.876 81.7678C177.37 82.1154 176.778 82.3176 176.165 82.3523Z" fill="#FF681C"/>
<path d="M175.225 324.122V294.325C179.143 285.82 186.867 291.617 186.867 291.617C188.073 292.881 189.63 293.755 191.337 294.125C193.044 294.496 194.823 294.347 196.444 293.698C198.066 293.048 199.456 291.928 200.435 290.481C201.414 289.035 201.937 287.328 201.937 285.581C201.937 283.835 201.414 282.128 200.435 280.681C199.456 279.235 198.066 278.115 196.444 277.465C194.823 276.816 193.044 276.667 191.337 277.037C189.63 277.408 188.073 278.282 186.867 279.545C179.573 284.323 175.225 276.838 175.225 276.838V247.025H205.024C205.024 247.025 212.573 242.677 207.731 235.383C206.467 234.177 205.594 232.621 205.223 230.914C204.852 229.207 205.001 227.428 205.651 225.807C206.3 224.185 207.42 222.795 208.867 221.817C210.314 220.838 212.021 220.314 213.767 220.314C215.514 220.314 217.221 220.838 218.668 221.817C220.114 222.795 221.235 224.185 221.884 225.807C222.534 227.428 222.683 229.207 222.312 230.914C221.941 232.621 221.067 234.177 219.804 235.383C219.804 235.383 214.006 243.107 222.511 247.025H252.31V324.122H175.225Z" fill="url(#paint6_linear)"/>
<path d="M118.128 322.529H112.745L167.851 177.031C168.036 176.561 168.359 176.158 168.776 175.874C169.194 175.59 169.687 175.438 170.192 175.438C170.6 175.438 171.002 175.536 171.363 175.725C171.724 175.914 172.034 176.188 172.266 176.523C172.498 176.859 172.645 177.245 172.694 177.65C172.743 178.055 172.694 178.465 172.549 178.847L118.128 322.529Z" fill="#3DAFE4"/>
<path d="M150.411 322.529H145.028L200.739 175.406H206.123L150.411 322.529Z" fill="#3DAFE4"/>
<path d="M192.043 198.387H163.567L165 194.597H193.477L192.043 198.387Z" fill="#3DAFE4"/>
<path d="M183.284 221.496H154.807L156.256 217.706H184.733L183.284 221.496Z" fill="#3DAFE4"/>
<path d="M174.54 244.604H146.063L147.497 240.798H175.973L174.54 244.604Z" fill="#3DAFE4"/>
<path d="M165.796 267.697H137.319L138.753 263.906H167.23L165.796 267.697Z" fill="#3DAFE4"/>
<path d="M157.037 290.805H128.56L130.009 287.015H158.47L157.037 290.805Z" fill="#3DAFE4"/>
<path d="M165.143 198.388L157.817 217.706H184.781L183.348 221.496H156.431L149.121 240.798H176.021L174.588 244.588H147.64L140.33 263.906H167.262L165.828 267.697H138.896L131.57 287.015H158.486L157.037 290.805H130.137L118.128 322.529H112.745L167.851 177.031C168.09 176.532 168.488 176.126 168.981 175.875C169.475 175.624 170.038 175.544 170.582 175.645C171.126 175.747 171.622 176.025 171.992 176.437C172.362 176.849 172.586 177.371 172.629 177.923C172.629 178.227 172.575 178.529 172.47 178.815L166.497 194.597H193.397L191.964 198.388H165.143Z" fill="url(#paint7_linear)"/>
<path d="M150.411 322.529H145.028L200.739 175.406H206.123L150.411 322.529Z" fill="url(#paint8_linear)"/>
<path d="M417.485 196.731C416.689 197.404 415.736 197.865 414.714 198.069C413.775 198.108 412.84 197.94 411.974 197.575L398.723 193.164C397.722 193.944 397.054 195.074 396.853 196.327C396.652 197.58 396.933 198.863 397.64 199.916C398.939 201.339 400.629 202.348 402.498 202.815L411.592 206.08C413.691 207.06 415.982 207.562 418.298 207.548C420.615 207.534 422.899 207.006 424.986 206C427.694 205.092 430.672 203.962 431.978 201.414C433.284 198.865 432.329 195.489 432.711 192.511C433.214 190.619 433.57 188.692 433.778 186.746C433.778 185.074 432.408 182.557 430.417 182.908C428.697 183.21 427.551 186.204 426.643 187.463C424.083 191.003 420.995 194.129 417.485 196.731Z" fill="white"/>
<path d="M397.067 192.415C396.929 192.057 396.717 191.732 396.446 191.46C396.312 191.323 396.141 191.23 395.954 191.19C395.767 191.15 395.573 191.167 395.395 191.237C395.221 191.344 395.081 191.498 394.991 191.681C394.901 191.864 394.864 192.069 394.885 192.272C394.898 192.344 394.896 192.418 394.88 192.489C394.863 192.56 394.833 192.627 394.79 192.686C394.694 192.782 394.519 192.686 394.376 192.686C392.878 192.399 391.349 192.177 389.821 192.017C389.657 191.984 389.487 191.997 389.329 192.053C389.172 192.109 389.032 192.207 388.926 192.336C388.82 192.465 388.75 192.621 388.726 192.786C388.701 192.952 388.721 193.121 388.785 193.275C388.951 193.783 389.205 194.257 389.534 194.677C390.314 195.951 390.601 197.623 391.843 198.451C392.603 198.895 393.486 199.08 394.36 198.977C395.236 198.977 396.096 198.77 396.972 198.818C397.551 198.941 398.154 198.874 398.692 198.626C398.892 198.476 399.052 198.278 399.155 198.05C399.258 197.821 399.301 197.57 399.281 197.321C399.189 196.534 398.91 195.78 398.469 195.123C397.975 194.263 397.513 193.339 397.067 192.415Z" fill="#FDB9A9"/>
<path d="M434.017 292.159C428.952 291.012 429.94 298.194 428.602 300.87C427.755 302.244 426.677 303.462 425.416 304.469C424.175 305.503 423.363 306.962 423.139 308.562C423.109 308.86 423.17 309.16 423.314 309.422C423.572 309.737 423.933 309.951 424.333 310.027C427.229 310.873 430.34 310.565 433.013 309.167C434.266 308.577 435.306 307.615 435.992 306.412C436.547 305.116 436.808 303.713 436.756 302.303C436.916 299.309 438.253 293.098 434.017 292.159Z" fill="#FDB9A9"/>
<path d="M429.526 306.97C429.526 306.97 415.096 307.591 421.212 312.114C427.328 316.637 436.454 311.015 437.345 309.98C438.237 308.945 437.505 307.177 437.505 307.177L429.526 306.97Z" fill="#3DAFE4"/>
<path d="M436.709 308.96C435.434 310.553 428.65 312.639 425.64 312.416C422.629 312.193 419.938 310.824 420.24 308.865C420.543 306.906 425.831 302.399 426.834 302.415C427.837 302.431 428.618 304.74 430.625 305.218C431.521 305.366 432.441 305.284 433.297 304.977C434.153 304.67 434.916 304.15 435.514 303.466C435.693 303.227 435.947 303.054 436.236 302.976C436.525 302.898 436.831 302.919 437.107 303.036C437.526 303.982 437.709 305.015 437.64 306.047C437.571 307.08 437.251 308.079 436.709 308.96Z" fill="white"/>
<path d="M451.425 294.994C446.36 293.815 447.347 301.013 446.01 303.673C445.163 305.052 444.086 306.275 442.824 307.288C441.584 308.316 440.772 309.77 440.547 311.365C440.52 311.668 440.581 311.972 440.722 312.241C440.984 312.551 441.343 312.764 441.741 312.846C444.638 313.685 447.746 313.377 450.421 311.986C451.671 311.385 452.71 310.419 453.4 309.215C453.952 307.924 454.213 306.526 454.164 305.122C454.323 302.096 455.661 295.901 451.425 294.994Z" fill="#FDB9A9"/>
<path d="M446.933 309.741C446.933 309.741 432.504 310.346 438.62 314.901C444.735 319.455 453.861 313.786 454.753 312.751C455.645 311.716 454.913 309.948 454.913 309.948L446.933 309.741Z" fill="#3DAFE4"/>
<path d="M454.116 311.699C452.842 313.292 446.057 315.394 443.047 315.171C440.037 314.948 437.346 313.579 437.648 311.62C437.951 309.661 443.238 305.154 444.242 305.25C445.245 305.345 446.026 307.575 448.032 308.037C448.928 308.189 449.847 308.109 450.703 307.805C451.559 307.501 452.323 306.983 452.922 306.301C453.099 306.059 453.353 305.885 453.643 305.807C453.932 305.729 454.24 305.751 454.514 305.871C454.918 306.804 455.092 307.819 455.023 308.833C454.954 309.847 454.643 310.83 454.116 311.699Z" fill="white"/>
<path d="M438.349 229.491L445.134 300.902L454.913 299.692C458.783 282.269 457.827 230.144 457.827 230.144L438.349 229.491Z" fill="#473F47"/>
<path d="M445.134 227.564L438.349 298.959L428.538 297.749C422.948 252.583 427.567 224.49 427.567 224.49L445.134 227.564Z" fill="#473F47"/>
<path d="M428.458 201.748C428.331 200.442 427.981 199.136 427.853 197.798C427.534 195.107 427.583 192.386 427.997 189.708C428.457 186.851 429.321 184.073 430.561 181.458C431.676 179.197 433.746 178.273 436.008 177.095C437.931 176.061 440.015 175.355 442.171 175.008C443.689 174.87 445.218 174.956 446.71 175.263C451.329 176.139 457.397 178.448 460.551 182.159C462.924 184.882 463.194 188.8 463.274 192.415C463.37 197.4 463.274 202.385 462.956 207.37C462.956 208.086 462.876 208.803 462.812 209.536C462.555 215.081 461.717 220.584 460.312 225.955C460.048 227.633 459.139 229.142 457.779 230.159C454.164 232.262 448.653 231.099 444.751 230.558C439.575 229.825 434.272 229.061 429.685 226.544C428.733 226.136 427.963 225.394 427.519 224.458C427.29 223.279 427.441 222.058 427.949 220.97C429.541 215.874 428.299 210.507 428.299 205.299C428.299 204.36 428.411 203.404 428.411 202.449C428.458 202.226 428.458 201.987 428.458 201.748Z" fill="white"/>
<path d="M444.704 210.969C445.931 211.733 447.285 212.272 448.701 212.562C452.922 213.788 457.254 214.441 461.443 215.747C461.727 215.802 461.992 215.934 462.207 216.129C462.378 216.393 462.457 216.707 462.43 217.021C462.45 218.247 462.267 219.469 461.888 220.636C461.766 221.219 461.431 221.735 460.949 222.085C460.337 222.308 459.666 222.308 459.054 222.085L443.27 218.741C442.141 218.452 440.979 218.313 439.814 218.327C438.434 218.487 437.079 218.825 435.785 219.33C433.364 220.105 430.873 220.639 428.347 220.923C428.481 217.91 428.849 214.912 429.446 211.956C429.678 211.083 430.009 210.238 430.433 209.44C430.943 208.652 431.541 207.925 432.217 207.274C434.765 204.615 436.533 201.286 439.113 198.626C440.467 197.225 442.155 196.333 443.35 194.836C443.828 194.231 447.969 189.023 447.57 188.466C448.367 189.453 450.342 188.466 451.058 189.485C451.504 190.122 451.058 190.982 450.644 191.635C447.593 196.745 445.464 202.351 444.353 208.198C444.035 209.552 443.557 210.029 444.704 210.969Z" fill="url(#paint9_linear)"/>
<path d="M431.835 145.594C433.299 146.534 434.449 147.891 435.138 149.489C435.827 151.087 436.023 152.854 435.702 154.565C435.38 156.275 434.555 157.851 433.333 159.09C432.111 160.329 430.547 161.175 428.841 161.519C428.841 161.519 419.794 164.927 424.875 172.795L450.007 188.8L434.081 213.931C426.213 219.011 422.805 209.966 422.805 209.966C422.462 208.258 421.617 206.691 420.376 205.468C419.136 204.245 417.559 203.421 415.846 203.102C414.134 202.782 412.365 202.983 410.768 203.677C409.17 204.372 407.817 205.528 406.882 206.998C405.948 208.468 405.474 210.183 405.523 211.925C405.571 213.666 406.14 215.352 407.155 216.768C408.17 218.183 409.586 219.262 411.22 219.867C412.853 220.471 414.63 220.572 416.322 220.158C425.082 219.983 424.7 228.694 424.7 228.694L408.773 253.825L343.729 212.418L359.576 187.51C367.444 182.446 370.852 191.476 370.852 191.476C371.189 193.19 372.033 194.764 373.273 195.994C374.513 197.225 376.094 198.055 377.811 198.379C379.527 198.703 381.302 198.505 382.905 197.811C384.509 197.116 385.867 195.958 386.806 194.484C387.744 193.011 388.22 191.29 388.171 189.543C388.123 187.797 387.552 186.105 386.532 184.686C385.513 183.267 384.092 182.186 382.452 181.583C380.813 180.979 379.03 180.88 377.334 181.299C368.574 181.474 368.972 172.763 368.972 172.763L385.122 147.377L410.27 163.399C410.27 163.399 418.982 163.781 418.807 155.022C418.529 153.871 418.484 152.677 418.676 151.509C418.867 150.341 419.291 149.223 419.922 148.221C421.176 146.321 423.122 144.983 425.346 144.493C427.57 144.002 429.897 144.397 431.835 145.594Z" fill="#3DAFE4"/>
<path d="M470.616 197.082C471.269 198.218 471.802 199.419 472.209 200.665C472.723 202.849 472.778 205.116 472.368 207.322C472.176 209.484 471.399 211.554 470.123 213.31C467.431 216.495 462.621 216.798 458.448 216.4C453.712 215.962 449.035 215.023 444.497 213.597C444.075 213.502 443.678 213.317 443.334 213.055C442.966 212.639 442.714 212.134 442.601 211.59C442.254 210.27 442.024 208.921 441.917 207.561C446.694 206.191 451.982 207.306 456.967 206.573C457.307 206.572 457.641 206.489 457.943 206.333C458.244 206.176 458.504 205.95 458.7 205.672C458.896 205.395 459.024 205.075 459.071 204.739C459.119 204.402 459.085 204.059 458.974 203.739C458.735 200.936 456.999 198.483 456.187 195.776C455.391 193.17 455.458 190.377 456.378 187.813C456.652 186.909 457.118 186.075 457.745 185.369C458.372 184.662 459.144 184.1 460.009 183.72C462 183.067 462.764 184.628 463.863 186.093C466.393 189.577 468.651 193.251 470.616 197.082Z" fill="white"/>
<path d="M439.926 205.777C439.738 205.624 439.512 205.525 439.273 205.49C439.09 205.51 438.915 205.577 438.766 205.686C438.618 205.796 438.501 205.942 438.429 206.112C438.289 206.455 438.129 206.79 437.951 207.115C437.712 207.381 437.416 207.589 437.085 207.724C436.754 207.859 436.396 207.918 436.04 207.895C435.325 207.824 434.604 207.824 433.89 207.895C433.625 207.949 433.378 208.07 433.173 208.246C432.977 208.437 432.839 208.68 432.775 208.946C432.653 209.487 432.668 210.05 432.819 210.584C432.969 211.118 433.249 211.606 433.635 212.004C434.413 212.792 435.368 213.382 436.422 213.724C437.497 214.199 438.689 214.343 439.846 214.138C440.481 213.954 441.087 213.68 441.646 213.326L443.971 212.036C444.165 211.944 444.338 211.814 444.481 211.654C444.99 211.017 444.29 209.106 443.828 208.469C442.665 207.386 441.351 206.479 439.926 205.777Z" fill="#FDB9A9"/>
<path d="M438.365 167.778C438.365 166.409 438.476 165.023 438.62 163.685C438.763 162.347 438.938 161.296 439.161 160.118C439.176 159.769 439.267 159.428 439.426 159.117C439.586 158.806 439.81 158.534 440.085 158.318C441.926 157.219 444.042 156.667 446.185 156.726C446.995 156.669 447.809 156.781 448.574 157.055C449.339 157.329 450.039 157.759 450.628 158.318C451.348 159.233 451.775 160.343 451.855 161.503C451.929 164.518 451.63 167.529 450.963 170.47C450.626 172.779 450.504 175.114 450.596 177.445C449.468 178.195 448.171 178.655 446.822 178.783C446.194 178.777 445.571 178.675 444.974 178.48C444.642 178.405 444.348 178.213 444.146 177.939C444.075 177.684 444.075 177.414 444.146 177.158C444.162 176.915 444.162 176.67 444.146 176.426C444.239 175.062 444.213 173.692 444.067 172.333C444.069 172.274 444.059 172.215 444.037 172.16C444.015 172.105 443.982 172.055 443.939 172.014C443.852 171.983 443.756 171.983 443.668 172.014H443.286C442.609 172.086 441.925 172.086 441.248 172.014C440.432 171.935 439.674 171.561 439.113 170.963C438.466 170.036 438.198 168.897 438.365 167.778Z" fill="#FDB9A9"/>
<path d="M441.2 159.051C440.722 159.051 440.292 159.306 439.878 159.051C439.445 158.692 439.064 158.274 438.747 157.809C437.986 156.799 437.613 155.55 437.696 154.289C437.726 153.718 437.913 153.167 438.237 152.696C438.591 152.268 439.045 151.935 439.559 151.725C440.547 151.239 441.647 151.024 442.745 151.104C444.336 151.311 445.82 152.019 446.981 153.126C447.226 153.382 447.525 153.578 447.857 153.7C448.162 153.764 448.476 153.764 448.781 153.7C450.796 153.53 452.8 154.146 454.371 155.42C455.263 156.2 455.964 157.203 456.888 157.888C457.811 158.573 458.719 158.828 459.197 159.704C459.397 160.111 459.477 160.566 459.429 161.017C459.381 161.468 459.207 161.896 458.926 162.252C458.333 162.95 457.518 163.423 456.617 163.59C456.716 163.849 456.762 164.125 456.753 164.402C456.744 164.679 456.68 164.952 456.564 165.204C456.448 165.456 456.284 165.683 456.079 165.87C455.875 166.058 455.635 166.203 455.375 166.297C455.007 166.353 454.651 166.472 454.323 166.647C454.1 166.823 454.005 167.093 453.782 167.269C453.256 167.699 452.571 167.842 452.348 168.574C452.282 168.883 452.255 169.199 452.269 169.514C452.23 169.981 452.04 170.423 451.727 170.772C451.52 170.995 451.154 171.553 450.851 171.616C450.549 171.68 450.278 171.314 450.182 170.995C449.809 169.645 449.904 168.207 450.453 166.918C450.847 166.296 451.078 165.583 451.122 164.848C451.122 164.115 450.071 163.542 449.529 163.972C448.988 164.402 448.956 165.437 448.383 165.23C448.738 164.201 448.712 163.078 448.309 162.066C447.905 161.055 447.151 160.222 446.185 159.72C445.112 159.392 443.994 159.236 442.872 159.258C442.348 159.147 441.815 159.089 441.279 159.083L441.2 159.051Z" fill="#473F47"/>
<path d="M443.286 172.046C444.868 171.745 446.415 171.286 447.905 170.677C448.039 171.932 447.737 173.195 447.05 174.253C446.362 175.312 445.331 176.102 444.13 176.49C444.25 175.128 444.25 173.758 444.13 172.397C444.129 172.278 444.083 172.165 444.003 172.078C443.915 172.047 443.82 172.047 443.732 172.078H443.366L443.286 172.046Z" fill="#DE9F93"/>
<path d="M393.42 183.497C393.661 183.843 393.818 184.241 393.876 184.659C393.934 185.077 393.892 185.503 393.754 185.902C393.478 186.699 393.075 187.447 392.56 188.115L390.059 191.81C389.406 192.766 388.467 193.849 387.368 193.753C384.628 193.562 383.418 186.459 384.437 184.357C385.616 181.729 391.62 181.251 393.42 183.497Z" fill="#FDB9A9"/>
<path d="M406.32 247.025V324.122H329.235V294.309C329.235 294.309 333.583 286.76 340.878 291.601C342.084 292.865 343.641 293.739 345.348 294.109C347.054 294.48 348.833 294.331 350.455 293.682C352.077 293.032 353.466 291.912 354.445 290.465C355.424 289.019 355.947 287.312 355.947 285.565C355.947 283.819 355.424 282.112 354.445 280.665C353.466 279.219 352.077 278.099 350.455 277.449C348.833 276.8 347.054 276.651 345.348 277.021C343.641 277.392 342.084 278.266 340.878 279.53C340.878 279.53 333.153 285.327 329.235 276.822V247.025H359.034C367.539 243.107 361.742 235.383 361.742 235.383C360.478 234.177 359.604 232.621 359.234 230.914C358.863 229.207 359.012 227.428 359.661 225.807C360.311 224.185 361.431 222.795 362.878 221.817C364.324 220.838 366.031 220.314 367.778 220.314C369.525 220.314 371.232 220.838 372.678 221.817C374.125 222.795 375.245 224.185 375.895 225.807C376.544 227.428 376.693 229.207 376.322 230.914C375.952 232.621 375.078 234.177 373.814 235.383C369.036 242.677 376.522 247.025 376.522 247.025H406.32Z" fill="#3DAFE4"/>
<path d="M406.32 247.025V324.122H329.235V294.309C329.235 294.309 333.583 286.76 340.878 291.601C342.084 292.865 343.641 293.739 345.348 294.109C347.054 294.48 348.833 294.331 350.455 293.682C352.077 293.032 353.466 291.912 354.445 290.465C355.424 289.019 355.947 287.312 355.947 285.565C355.947 283.819 355.424 282.112 354.445 280.665C353.466 279.219 352.077 278.099 350.455 277.449C348.833 276.8 347.054 276.651 345.348 277.021C343.641 277.392 342.084 278.266 340.878 279.53C340.878 279.53 333.153 285.327 329.235 276.822V247.025H359.034C367.539 243.107 361.742 235.383 361.742 235.383C360.478 234.177 359.604 232.621 359.234 230.914C358.863 229.207 359.012 227.428 359.661 225.807C360.311 224.185 361.431 222.795 362.878 221.817C364.324 220.838 366.031 220.314 367.778 220.314C369.525 220.314 371.232 220.838 372.678 221.817C374.125 222.795 375.245 224.185 375.895 225.807C376.544 227.428 376.693 229.207 376.322 230.914C375.952 232.621 375.078 234.177 373.814 235.383C369.036 242.677 376.522 247.025 376.522 247.025H406.32Z" fill="url(#paint10_linear)"/>
<path d="M278.876 208.469C278.87 210.214 278.343 211.919 277.363 213.363C276.382 214.808 274.992 215.926 273.371 216.575C271.75 217.223 269.972 217.373 268.265 217.004C266.559 216.635 265.001 215.765 263.793 214.505C256.499 209.727 252.151 217.212 252.151 217.212V247.025H329.236V169.928H252.151V199.725C256.069 208.23 263.793 202.433 263.793 202.433C265.001 201.173 266.559 200.302 268.265 199.933C269.972 199.564 271.75 199.714 273.371 200.363C274.992 201.011 276.382 202.13 277.363 203.574C278.343 205.018 278.87 206.723 278.876 208.469Z" fill="#3DAFE4"/>
<path d="M284.657 258.667C283.393 259.872 282.519 261.429 282.149 263.136C281.778 264.843 281.927 266.622 282.576 268.243C283.226 269.865 284.346 271.254 285.793 272.233C287.239 273.212 288.946 273.735 290.693 273.735C292.44 273.735 294.147 273.212 295.593 272.233C297.04 271.254 298.16 269.865 298.81 268.243C299.459 266.622 299.608 264.843 299.237 263.136C298.867 261.429 297.993 259.872 296.729 258.667C296.729 258.667 290.932 250.943 299.437 247.025H281.933C281.933 247.025 289.499 251.373 284.657 258.667Z" fill="#3DAFE4"/>
<path d="M252.151 169.928V199.725C256.069 208.23 263.793 202.433 263.793 202.433C264.999 201.169 266.556 200.295 268.263 199.925C269.97 199.554 271.749 199.703 273.37 200.352C274.992 201.002 276.381 202.122 277.36 203.569C278.339 205.015 278.863 206.722 278.863 208.469C278.863 210.215 278.339 211.922 277.36 213.369C276.381 214.815 274.992 215.936 273.37 216.585C271.749 217.234 269.97 217.383 268.263 217.013C266.556 216.642 264.999 215.768 263.793 214.505C256.499 209.727 252.151 217.212 252.151 217.212V247.025H281.933C281.933 247.025 289.483 251.373 284.641 258.667C283.377 259.873 282.504 261.429 282.133 263.136C281.762 264.843 281.911 266.622 282.56 268.243C283.21 269.865 284.33 271.255 285.777 272.233C287.224 273.212 288.93 273.736 290.677 273.736C292.424 273.736 294.131 273.212 295.577 272.233C297.024 271.255 298.144 269.865 298.794 268.243C299.443 266.622 299.592 264.843 299.222 263.136C298.851 261.429 297.977 259.873 296.713 258.667C296.713 258.667 290.916 250.943 299.421 247.025H329.236V169.928H252.151Z" fill="url(#paint11_linear)"/>
<path d="M252.151 247.025V324.122H329.236V294.309C329.236 294.309 333.584 286.76 340.878 291.601C342.084 292.865 343.641 293.738 345.348 294.109C347.055 294.48 348.833 294.331 350.455 293.682C352.077 293.032 353.466 291.912 354.445 290.465C355.424 289.019 355.948 287.312 355.948 285.565C355.948 283.819 355.424 282.112 354.445 280.665C353.466 279.219 352.077 278.098 350.455 277.449C348.833 276.799 347.055 276.651 345.348 277.021C343.641 277.392 342.084 278.266 340.878 279.529C340.878 279.529 333.154 285.326 329.236 276.822V247.025H299.453C290.948 250.943 296.745 258.667 296.745 258.667C298.009 259.873 298.883 261.429 299.253 263.136C299.624 264.843 299.475 266.622 298.826 268.243C298.176 269.865 297.056 271.255 295.609 272.233C294.163 273.212 292.456 273.735 290.709 273.735C288.962 273.735 287.255 273.212 285.809 272.233C284.362 271.255 283.242 269.865 282.592 268.243C281.943 266.622 281.794 264.843 282.165 263.136C282.535 261.429 283.409 259.873 284.673 258.667C289.451 251.373 281.965 247.025 281.965 247.025H252.151Z" fill="#3DAFE4"/>
<path d="M175.225 324.122V294.325C179.143 285.82 186.867 291.617 186.867 291.617C188.073 292.881 189.63 293.755 191.337 294.125C193.044 294.496 194.823 294.347 196.444 293.698C198.066 293.048 199.456 291.928 200.435 290.481C201.414 289.035 201.937 287.328 201.937 285.581C201.937 283.835 201.414 282.128 200.435 280.681C199.456 279.235 198.066 278.115 196.444 277.465C194.823 276.816 193.044 276.667 191.337 277.037C189.63 277.408 188.073 278.282 186.867 279.545C179.573 284.323 175.225 276.838 175.225 276.838V247.025H205.024C205.024 247.025 212.573 242.677 207.731 235.383C206.467 234.177 205.594 232.621 205.223 230.914C204.852 229.207 205.001 227.428 205.651 225.807C206.3 224.185 207.42 222.795 208.867 221.817C210.314 220.838 212.021 220.314 213.767 220.314C215.514 220.314 217.221 220.838 218.668 221.817C220.114 222.795 221.235 224.185 221.884 225.807C222.534 227.428 222.683 229.207 222.312 230.914C221.941 232.621 221.067 234.177 219.804 235.383C219.804 235.383 214.006 243.107 222.511 247.025H252.31V324.122H175.225Z" fill="#3DAFE4"/>
<path d="M175.225 324.122V294.325C179.143 285.82 186.867 291.617 186.867 291.617C188.073 292.881 189.63 293.755 191.337 294.125C193.044 294.496 194.823 294.347 196.444 293.698C198.066 293.048 199.456 291.928 200.435 290.481C201.414 289.035 201.937 287.328 201.937 285.581C201.937 283.835 201.414 282.128 200.435 280.681C199.456 279.235 198.066 278.115 196.444 277.465C194.823 276.816 193.044 276.667 191.337 277.037C189.63 277.408 188.073 278.282 186.867 279.545C179.573 284.323 175.225 276.838 175.225 276.838V247.025H205.024C205.024 247.025 212.573 242.677 207.731 235.383C206.467 234.177 205.594 232.621 205.223 230.914C204.852 229.207 205.001 227.428 205.651 225.807C206.3 224.185 207.42 222.795 208.867 221.817C210.314 220.838 212.021 220.314 213.767 220.314C215.514 220.314 217.221 220.838 218.668 221.817C220.114 222.795 221.235 224.185 221.884 225.807C222.534 227.428 222.683 229.207 222.312 230.914C221.941 232.621 221.067 234.177 219.804 235.383C219.804 235.383 214.006 243.107 222.511 247.025H252.31V324.122H175.225Z" fill="url(#paint12_linear)"/>
<path d="M278.971 208.485C278.966 210.23 278.439 211.935 277.458 213.379C276.477 214.824 275.087 215.942 273.466 216.591C271.845 217.239 270.067 217.389 268.361 217.02C266.654 216.651 265.097 215.781 263.889 214.52C263.889 214.52 256.164 208.723 252.246 217.228V247.025H222.447C213.943 243.107 219.74 235.383 219.74 235.383C221.004 234.177 221.877 232.621 222.248 230.914C222.619 229.207 222.47 227.428 221.82 225.807C221.171 224.185 220.051 222.795 218.604 221.816C217.157 220.838 215.45 220.314 213.704 220.314C211.957 220.314 210.25 220.838 208.803 221.816C207.357 222.795 206.236 224.185 205.587 225.807C204.937 227.428 204.788 229.207 205.159 230.914C205.53 232.621 206.404 234.177 207.667 235.383C212.445 242.677 204.96 247.025 204.96 247.025H175.225V169.928H204.737C213.242 173.846 207.444 181.57 207.444 181.57C206.181 182.776 205.307 184.332 204.936 186.039C204.565 187.746 204.714 189.525 205.364 191.147C206.013 192.768 207.134 194.158 208.58 195.137C210.027 196.116 211.734 196.639 213.481 196.639C215.228 196.639 216.934 196.116 218.381 195.137C219.828 194.158 220.948 192.768 221.597 191.147C222.247 189.525 222.396 187.746 222.025 186.039C221.654 184.332 220.781 182.776 219.517 181.57C214.739 174.276 222.224 169.928 222.224 169.928H252.31V199.741C252.31 199.741 256.658 207.29 263.952 202.449C265.161 201.188 266.718 200.318 268.425 199.949C270.131 199.58 271.909 199.73 273.53 200.379C275.151 201.027 276.541 202.146 277.522 203.59C278.503 205.034 279.03 206.739 279.035 208.485H278.971Z" fill="#3DAFE4"/>
<path d="M297.86 356.626C297.888 358.375 297.391 360.091 296.433 361.554C295.475 363.017 294.101 364.159 292.487 364.833C290.874 365.507 289.095 365.681 287.381 365.334C285.667 364.987 284.097 364.134 282.873 362.885C282.873 362.885 275.069 357.2 271.278 365.752L271.708 395.549L241.91 395.979C233.341 392.189 239.027 384.385 239.027 384.385C240.268 383.162 241.114 381.595 241.457 379.887C241.799 378.179 241.623 376.408 240.95 374.8C240.278 373.193 239.139 371.824 237.682 370.87C236.225 369.915 234.515 369.419 232.773 369.444C231.031 369.469 229.336 370.015 227.907 371.012C226.478 372.008 225.38 373.41 224.754 375.035C224.128 376.661 224.003 378.437 224.396 380.135C224.788 381.832 225.679 383.373 226.955 384.56C231.908 391.774 224.422 396.234 224.422 396.234L194.624 396.664L193.509 319.567L223.021 319.153C231.589 322.943 225.903 330.747 225.903 330.747C224.663 331.97 223.817 333.536 223.474 335.244C223.131 336.953 223.307 338.724 223.98 340.331C224.653 341.938 225.791 343.307 227.249 344.262C228.706 345.217 230.416 345.713 232.158 345.688C233.9 345.663 235.594 345.117 237.024 344.12C238.453 343.124 239.551 341.722 240.176 340.096C240.802 338.47 240.927 336.694 240.535 334.997C240.143 333.299 239.251 331.758 237.976 330.572C233.023 323.357 240.508 318.898 240.508 318.898L270.594 318.468L271.024 348.281C271.024 348.281 275.483 355.766 282.698 350.813C283.516 349.941 284.502 349.243 285.597 348.761C286.692 348.279 287.872 348.024 289.069 348.01C291.375 347.993 293.595 348.89 295.242 350.505C296.889 352.119 297.831 354.32 297.86 356.626Z" fill="#3DAFE4"/>
<path d="M204.307 319.854C203.24 321.032 202.412 323.628 204.1 324.727C204.704 325.053 205.373 325.238 206.059 325.268L215.073 326.367C214.803 326.367 219.517 379.48 221.364 390.771C221.587 392.109 222.145 393.781 223.499 393.956C223.904 393.932 224.299 393.813 224.65 393.608C225.002 393.403 225.3 393.119 225.521 392.778C226.822 390.739 227.564 388.394 227.671 385.978C229.91 368.641 230.975 351.173 230.857 333.693C230.857 330.237 230.729 326.622 229.009 323.612C227.953 321.975 226.568 320.574 224.942 319.5C223.316 318.425 221.485 317.7 219.565 317.369C214.42 316.207 208.05 315.681 204.307 319.854Z" fill="url(#paint13_linear)"/>
<path d="M225.999 430.092V430.299C226.381 431.27 227.592 431.589 228.611 431.716C229.573 431.822 230.542 431.864 231.51 431.844C231.974 431.861 232.437 431.796 232.879 431.653C233.284 431.474 233.665 431.244 234.01 430.968L236.797 428.897C237.58 428.357 238.297 427.727 238.931 427.018C239.559 426.29 239.889 425.351 239.855 424.39C239.822 423.916 239.644 423.463 239.345 423.092C239.046 422.722 238.64 422.452 238.183 422.32C237.601 422.249 237.013 422.249 236.431 422.32C235.784 422.403 235.127 422.297 234.539 422.014C233.951 421.731 233.458 421.284 233.118 420.727C233.003 420.208 232.724 419.739 232.322 419.39C231.916 419.193 231.457 419.137 231.016 419.23C230.049 419.279 229.094 419.467 228.181 419.788C227.721 419.953 227.303 420.219 226.958 420.566C226.614 420.913 226.351 421.333 226.19 421.794C226.093 422.223 226.05 422.661 226.063 423.1C226.118 424.007 226.118 424.917 226.063 425.824C225.936 426.955 225.872 428.093 225.872 429.232C225.88 429.522 225.923 429.811 225.999 430.092Z" fill="#262836"/>
<path d="M253.027 430.458C251.15 431.317 249.219 432.051 247.245 432.656C246.46 432.995 245.58 433.046 244.761 432.799C244.439 432.644 244.155 432.421 243.927 432.146C243.699 431.872 243.533 431.551 243.439 431.207C243.267 430.504 243.197 429.78 243.232 429.057C243.354 427.938 243.583 426.834 243.917 425.76C244.092 424.757 244.235 423.754 244.362 422.75C244.569 421.301 244.761 419.868 244.936 418.434L249.953 419.501C250.478 419.613 250.972 421.635 251.291 422.065C251.524 422.382 251.825 422.642 252.173 422.827C252.52 423.012 252.904 423.116 253.297 423.132C254.152 423.009 255.014 422.94 255.877 422.925C256.434 423.056 256.932 423.367 257.292 423.811C257.652 424.255 257.855 424.806 257.868 425.378C257.864 425.946 257.741 426.507 257.508 427.025C257.275 427.544 256.937 428.008 256.514 428.388C255.67 429.153 254.7 429.767 253.648 430.203L253.027 430.458Z" fill="#262836"/>
<path d="M253.106 424.852C251.79 425.601 250.422 426.255 249.013 426.811H248.886C246.56 427.719 243.964 424.072 243.964 424.072C243.964 424.072 240.683 403.814 240.779 395.406C240.89 389.64 239.521 381.423 237.466 366.516C236.957 381.741 234.376 388.43 235.029 393.893C236.033 402.19 234.838 422.798 234.838 422.798C234.838 422.798 232.64 426.811 230.236 426.27H230.092C228.644 425.941 227.223 425.504 225.84 424.964C225.84 424.964 223.037 396.584 223.037 389.099C223.037 381.614 223.355 374.909 223.355 374.909L221.89 351.211L228.133 342.134L228.643 341.927L229.121 341.449L236.049 336.369C236.049 336.369 236.049 337.547 235.921 339.554L241.305 342.436L241.814 342.819L242.34 342.946L251.354 344.539C251.354 344.539 253.711 380.897 254.54 388.335C255.368 395.772 253.106 424.852 253.106 424.852Z" fill="#3DAFE4"/>
<path d="M253.106 424.852C251.79 425.601 250.422 426.255 249.013 426.811H248.886C246.56 427.719 243.964 424.072 243.964 424.072C243.964 424.072 240.683 403.814 240.779 395.406C240.89 389.64 239.521 381.423 237.466 366.516C236.957 381.741 234.376 388.43 235.029 393.893C236.033 402.19 234.838 422.798 234.838 422.798C234.838 422.798 232.64 426.811 230.236 426.27H230.092C228.644 425.941 227.223 425.504 225.84 424.964C225.84 424.964 223.037 396.584 223.037 389.099C223.037 381.614 223.355 374.909 223.355 374.909L221.89 351.211L228.133 342.134L228.643 341.927L229.121 341.449L236.049 336.369C236.049 336.369 236.049 337.547 235.921 339.554L241.305 342.436L241.814 342.819L242.34 342.946L251.354 344.539C251.354 344.539 253.711 380.897 254.54 388.335C255.368 395.772 253.106 424.852 253.106 424.852Z" fill="url(#paint14_linear)"/>
<path d="M295.535 298.115C295.646 298.035 295.78 297.991 295.917 297.988C296.283 297.988 296.299 298.577 296.172 298.927C295.839 299.904 295.355 300.823 294.738 301.65C294.539 301.857 294.42 302.128 294.404 302.415C294.404 302.702 294.659 302.909 294.85 303.116C295.436 303.796 295.852 304.605 296.066 305.477C296.279 306.349 296.282 307.259 296.076 308.132C295.635 309.877 294.726 311.468 293.448 312.735C293.141 313.126 292.758 313.453 292.324 313.697C291.889 313.94 291.411 314.095 290.916 314.152C289.196 314.152 287.046 312.034 286.361 310.569C286.112 309.837 286.057 309.053 286.202 308.293C286.347 307.534 286.687 306.825 287.189 306.237C289.221 302.853 292.097 300.055 295.535 298.115Z" fill="#A67C52"/>
<path d="M245.637 281.393C246.194 281.966 247.054 282.555 246.815 283.304C246.688 283.702 246.258 283.941 245.939 284.228C245.153 285.061 244.729 286.172 244.761 287.317C244.794 288.456 244.633 289.593 244.283 290.677C244.084 291.214 243.706 291.666 243.213 291.956C242.719 292.246 242.141 292.357 241.575 292.27C240.922 292.095 240.269 291.522 239.632 291.792C238.995 292.063 238.995 292.589 238.74 293.034C238.393 293.583 237.898 294.024 237.312 294.305C236.726 294.587 236.073 294.698 235.428 294.627C234.15 294.435 232.919 294.009 231.796 293.369C231.319 293.179 230.906 292.859 230.602 292.445C230.417 292.041 230.372 291.587 230.474 291.155C230.868 289.859 231.512 288.652 232.37 287.604C233.743 285.487 234.569 283.063 234.775 280.549C234.902 278.797 234.775 276.87 235.905 275.516C237.498 273.669 241.113 273.685 243.009 275.038C244.904 276.392 243.885 279.593 245.637 281.393Z" fill="#A67C52"/>
<path d="M243.375 273.462C243.153 273.898 242.817 274.267 242.403 274.529C241.559 275.022 240.811 275.596 240.046 276.121C239.276 276.629 238.733 277.418 238.533 278.319C238.199 279.912 239.091 281.727 238.533 283.336C238.326 283.67 237.801 283.463 237.594 283.145C237.387 282.826 237.259 282.428 236.941 282.237C236.383 281.918 235.714 282.46 235.475 283.049C235.229 283.734 235.257 284.488 235.554 285.153C235.85 285.818 236.393 286.343 237.068 286.616C236.988 287.126 236.335 287.333 235.81 287.269C235.291 287.127 234.755 287.057 234.217 287.062C233.023 287.285 232.625 288.989 231.382 289.165C230.971 289.137 230.571 289.015 230.215 288.808C229.859 288.601 229.555 288.314 229.328 287.97L227.878 286.378C227.645 286.068 227.389 285.775 227.114 285.502C226.779 285.247 226.238 285.231 225.967 284.928C225.696 284.626 225.967 283.909 225.681 283.527C225.545 283.385 225.375 283.281 225.187 283.224C224.77 283.014 224.438 282.666 224.247 282.24C224.055 281.814 224.016 281.335 224.136 280.883C224.174 280.77 224.174 280.646 224.136 280.533C224.136 280.374 223.913 280.31 223.753 280.23C223.314 279.945 222.99 279.513 222.841 279.011C222.692 278.508 222.728 277.969 222.941 277.491C223.183 276.942 223.53 276.444 223.96 276.026C224.112 275.792 224.328 275.606 224.582 275.49C224.836 275.375 225.118 275.334 225.394 275.373L225.633 273.287C225.627 272.933 225.7 272.583 225.846 272.261C225.992 271.939 226.207 271.654 226.477 271.425C226.747 271.197 227.064 271.031 227.405 270.94C227.747 270.848 228.104 270.834 228.452 270.898L227.974 269.178C227.886 268.958 227.886 268.713 227.974 268.493C228.105 268.341 228.285 268.239 228.484 268.206C229.039 268.048 229.611 267.952 230.188 267.92C229.981 267.437 229.821 266.936 229.71 266.423C229.674 266.349 229.66 266.266 229.671 266.184C229.682 266.102 229.717 266.026 229.772 265.964C229.827 265.903 229.898 265.859 229.978 265.839C230.058 265.818 230.142 265.822 230.22 265.849C230.431 265.881 230.646 265.881 230.857 265.849C230.857 265.849 230.538 264.384 230.522 264.257C230.426 263.797 230.511 263.317 230.761 262.919C230.935 262.721 231.156 262.569 231.404 262.477C231.651 262.385 231.917 262.357 232.179 262.393C232.695 262.485 233.192 262.668 233.644 262.935C233.644 262.377 234.329 262.091 234.886 262.043C235.959 261.983 237.03 262.195 237.999 262.66C238.969 263.125 239.804 263.828 240.429 264.703C240.532 264.857 240.649 265.001 240.779 265.133C241.034 265.295 241.314 265.413 241.607 265.483C242.059 265.683 242.461 265.981 242.783 266.356C243.105 266.73 243.34 267.172 243.471 267.649C243.709 268.595 243.806 269.572 243.757 270.547C243.794 271.297 243.724 272.047 243.55 272.777C243.519 273.011 243.46 273.241 243.375 273.462Z" fill="#2F3554"/>
<path d="M235.46 291.521C236.786 292.077 238.073 292.721 239.314 293.449C239.696 293.654 240.028 293.942 240.285 294.293C240.423 294.484 240.507 294.709 240.529 294.944C240.552 295.179 240.511 295.416 240.413 295.63C240.078 296.22 239.282 296.013 238.677 295.79C235.87 294.837 232.909 294.427 229.949 294.579C229.751 294.612 229.548 294.589 229.362 294.513C229.177 294.437 229.016 294.311 228.898 294.149C228.829 293.954 228.803 293.746 228.822 293.54C228.842 293.334 228.905 293.134 229.009 292.955C230.522 289.913 232.991 290.407 235.46 291.521Z" fill="white"/>
<path d="M289.976 314.996C289.401 316.426 288.551 317.73 287.476 318.834C286.441 319.997 285.374 321.112 284.291 322.195C281.674 324.724 278.914 327.101 276.025 329.313C274.062 331.047 271.723 332.301 269.192 332.976C268.166 333.217 267.091 333.15 266.102 332.785C265.298 332.384 264.57 331.845 263.952 331.193C263.22 330.46 254.715 320.666 254.571 320.666C254.089 320.925 253.716 321.349 253.52 321.86C252.292 324.406 251.531 327.152 251.275 329.966C251.171 331.222 251.171 332.485 251.275 333.741C251.609 338.025 253.106 342.436 251.625 346.481C251.329 347.336 250.838 348.111 250.192 348.743C249.568 349.288 248.85 349.714 248.073 350.001C246.7 350.563 245.269 350.969 243.805 351.211C242.969 351.365 242.122 351.456 241.273 351.482C238.087 351.61 235.061 351.004 231.94 351.148C229.296 351.291 226.668 351.976 223.976 351.88C223.597 351.954 223.205 351.945 222.83 351.853C222.454 351.761 222.103 351.589 221.8 351.348C221.497 351.108 221.25 350.804 221.076 350.459C220.902 350.114 220.805 349.735 220.791 349.348C219.76 343.678 219.227 337.928 219.198 332.164C219.198 330.157 219.087 328.135 218.959 326.128C218.848 324.424 219.31 320.092 217.367 319.758C212.429 318.802 207.301 320.013 202.316 319.312C202.455 316.05 203.84 312.966 206.186 310.696C207.337 309.725 208.586 308.876 209.913 308.164C211.441 307.07 212.812 305.774 213.99 304.31C217.377 300.128 221.668 296.768 226.54 294.484C227.317 294.104 228.134 293.815 228.977 293.624H229.184C229.306 293.61 229.429 293.61 229.551 293.624C230.616 293.534 231.689 293.599 232.736 293.815C239.842 294.994 246.872 296.589 253.791 298.593C254.704 298.798 255.569 299.176 256.339 299.707C256.877 300.193 257.339 300.757 257.709 301.38C259.652 304.31 261.547 307.272 263.506 310.202C265.194 312.719 266.851 315.872 269.335 317.719C274.744 315.521 279.85 312.642 284.529 309.151C285.182 308.658 286.027 308.116 286.775 308.451C287.024 308.562 287.247 308.725 287.428 308.928C289.26 310.521 290.868 312.273 289.976 314.996Z" fill="white"/>
</g>
<defs>
<linearGradient id="paint0_linear" x1="237.068" y1="383.939" x2="240.365" y2="447.308" gradientUnits="userSpaceOnUse">
<stop offset="0.01"/>
<stop offset="0.08" stop-opacity="0.69"/>
<stop offset="0.21" stop-opacity="0.32"/>
<stop offset="1" stop-opacity="0"/>
</linearGradient>
<linearGradient id="paint1_linear" x1="76015" y1="3535.49" x2="76032.8" y2="7516.42" gradientUnits="userSpaceOnUse">
<stop offset="0.01"/>
<stop offset="0.08" stop-opacity="0.69"/>
<stop offset="0.21" stop-opacity="0.32"/>
<stop offset="1" stop-opacity="0"/>
</linearGradient>
<linearGradient id="paint2_linear" x1="-54693.5" y1="25246.9" x2="-54204" y2="25437.7" gradientUnits="userSpaceOnUse">
<stop offset="0.01"/>
<stop offset="0.08" stop-opacity="0.69"/>
<stop offset="0.21" stop-opacity="0.32"/>
<stop offset="1" stop-opacity="0"/>
</linearGradient>
<linearGradient id="paint3_linear" x1="262.89" y1="224.986" x2="124.807" y2="-55.3831" gradientUnits="userSpaceOnUse">
<stop offset="0.01"/>
<stop offset="0.08" stop-opacity="0.69"/>
<stop offset="0.21" stop-opacity="0.32"/>
<stop offset="1" stop-opacity="0"/>
</linearGradient>
<linearGradient id="paint4_linear" x1="4084.2" y1="1698.2" x2="4194.49" y2="2492.49" gradientUnits="userSpaceOnUse">
<stop offset="0.01"/>
<stop offset="0.08" stop-opacity="0.69"/>
<stop offset="0.21" stop-opacity="0.32"/>
<stop offset="1" stop-opacity="0"/>
</linearGradient>
<linearGradient id="paint5_linear" x1="-21905.9" y1="-3923.17" x2="-22139.8" y2="-3752.25" gradientUnits="userSpaceOnUse">
<stop offset="0.01"/>
<stop offset="0.08" stop-opacity="0.69"/>
<stop offset="0.21" stop-opacity="0.32"/>
<stop offset="1" stop-opacity="0"/>
</linearGradient>
<linearGradient id="paint6_linear" x1="13264.2" y1="13489" x2="13053.2" y2="32038.3" gradientUnits="userSpaceOnUse">
<stop offset="0.01"/>
<stop offset="0.08" stop-opacity="0.69"/>
<stop offset="0.21" stop-opacity="0.32"/>
<stop offset="1" stop-opacity="0"/>
</linearGradient>
<linearGradient id="paint7_linear" x1="13297.8" y1="23401.8" x2="6197.57" y2="25637.2" gradientUnits="userSpaceOnUse">
<stop offset="0.01"/>
<stop offset="0.08" stop-opacity="0.69"/>
<stop offset="0.21" stop-opacity="0.32"/>
<stop offset="1" stop-opacity="0"/>
</linearGradient>
<linearGradient id="paint8_linear" x1="8144.76" y1="21428.7" x2="-1661.89" y2="23764.2" gradientUnits="userSpaceOnUse">
<stop offset="0.01"/>
<stop offset="0.08" stop-opacity="0.69"/>
<stop offset="0.21" stop-opacity="0.32"/>
<stop offset="1" stop-opacity="0"/>
</linearGradient>
<linearGradient id="paint9_linear" x1="10224.3" y1="3461.69" x2="12415.2" y2="8651.48" gradientUnits="userSpaceOnUse">
<stop offset="0.01"/>
<stop offset="0.08" stop-opacity="0.69"/>
<stop offset="0.21" stop-opacity="0.32"/>
<stop offset="1" stop-opacity="0"/>
</linearGradient>
<linearGradient id="paint10_linear" x1="13385.9" y1="14211.5" x2="34855.7" y2="25388.7" gradientUnits="userSpaceOnUse">
<stop offset="0.01"/>
<stop offset="0.08" stop-opacity="0.69"/>
<stop offset="0.21" stop-opacity="0.32"/>
<stop offset="1" stop-opacity="0"/>
</linearGradient>
<linearGradient id="paint11_linear" x1="15605.2" y1="26444.6" x2="21698" y2="2116.68" gradientUnits="userSpaceOnUse">
<stop offset="0.01"/>
<stop offset="0.08" stop-opacity="0.69"/>
<stop offset="0.21" stop-opacity="0.32"/>
<stop offset="1" stop-opacity="0"/>
</linearGradient>
<linearGradient id="paint12_linear" x1="13416.1" y1="9406.23" x2="12471.5" y2="40258.3" gradientUnits="userSpaceOnUse">
<stop offset="0.01"/>
<stop offset="0.08" stop-opacity="0.69"/>
<stop offset="0.21" stop-opacity="0.32"/>
<stop offset="1" stop-opacity="0"/>
</linearGradient>
<linearGradient id="paint13_linear" x1="4217.34" y1="16875.2" x2="8816.78" y2="18665.6" gradientUnits="userSpaceOnUse">
<stop offset="0.01"/>
<stop offset="0.08" stop-opacity="0.69"/>
<stop offset="0.21" stop-opacity="0.32"/>
<stop offset="1" stop-opacity="0"/>
</linearGradient>
<linearGradient id="paint14_linear" x1="5590.9" y1="21668.9" x2="9465.65" y2="23634.8" gradientUnits="userSpaceOnUse">
<stop offset="0.01"/>
<stop offset="0.08" stop-opacity="0.69"/>
<stop offset="0.21" stop-opacity="0.32"/>
<stop offset="1" stop-opacity="0"/>
</linearGradient>
<clipPath id="clip0">
<rect width="561" height="479" fill="white"/>
</clipPath>
</defs>
</svg>
