<svg width="566" height="420" viewBox="0 0 566 420" fill="none" xmlns="http://www.w3.org/2000/svg">
<g clip-path="url(#clip0)">
<path opacity="0.18" d="M344.826 15.5303C368.524 27.8172 388.191 46.4049 406.601 66.0069C431.543 92.581 463.331 111.183 492.361 132.699C525.307 157.102 556.881 188.419 564.299 228.766C567.458 245.911 565.943 263.698 562.126 280.729C557.768 300.765 549.916 319.877 538.928 337.192C516.345 372.167 480.083 397.312 440.305 409.785C400.527 422.258 357.604 422.643 316.754 414.528C295.414 410.313 274.331 403.813 252.577 403.256C236.096 402.827 219.702 405.827 203.422 407.999C153.281 414.685 99.8671 413.057 55.5008 388.768C27.8004 373.453 3.60185 347.307 0.385858 315.761C-3.30181 279.614 20.0105 248.468 43.6231 223.837C62.8984 203.82 79.6946 181.558 93.6496 157.53C99.8243 147.001 106.17 138.657 109.958 126.699C113.589 115.269 115.833 103.425 120.106 92.181C124.996 79.3899 132.503 67.7598 142.147 58.0346C157.784 42.3187 178.194 32.3177 198.176 22.6453C209.897 16.9304 221.646 11.3013 233.995 7.24372C262.521 -2.04445 293.202 -2.41329 321.942 6.18646C329.843 8.5857 337.504 11.7138 344.826 15.5303Z" fill="#3DAFE4"/>
<path d="M282.521 368.709C284.725 369.256 286.774 370.303 288.51 371.766C293.027 376.053 290.826 384.253 285.823 387.982C280.82 391.711 274.217 392.269 267.999 392.826C247.347 394.595 226.805 397.485 206.467 401.484C186.67 405.384 166.588 410.328 146.263 409.585C139.117 409.327 121.536 408.985 116.376 403.184C109.744 395.726 123.909 387.082 129.812 382.996C154.11 366.123 182.611 369.952 210.697 365.709C234.496 362.108 259.352 361.237 282.521 368.709Z" fill="url(#paint0_linear)"/>
<path d="M383.003 328.076C379.701 329.105 376.342 330.762 374.556 333.72C373.685 335.469 372.995 337.302 372.497 339.192C371.32 342.49 369.428 345.487 366.957 347.969C364.486 350.451 361.497 352.357 358.204 353.55C356.317 354.222 354.202 354.75 353.03 356.408C352.47 357.299 352.185 358.335 352.211 359.387C352.236 360.439 352.571 361.46 353.173 362.323C354.41 364.021 356.091 365.346 358.033 366.152C364.993 369.409 373.098 369.409 380.645 367.923C388.191 366.437 395.381 363.637 402.713 361.251C412.195 358.262 421.939 356.181 431.815 355.036C439.633 354.136 447.537 353.808 455.084 351.407C462.631 349.007 469.749 344.135 472.636 336.82C463.288 327.233 448.338 326.076 435.031 327.105C418.007 328.391 399.683 322.904 383.003 328.076Z" fill="url(#paint1_linear)"/>
<path d="M51.6846 314.332C48.3828 315.375 45.0239 317.018 43.2372 319.975C42.362 321.724 41.6675 323.558 41.1647 325.447C39.9942 328.749 38.1048 331.75 35.633 334.233C33.1612 336.716 30.1687 338.62 26.8714 339.806C24.999 340.477 22.8836 341.006 21.6972 342.663C21.1445 343.557 20.8637 344.592 20.889 345.642C20.9144 346.692 21.2449 347.713 21.8402 348.578C23.0712 350.288 24.7608 351.616 26.7142 352.407C33.675 355.665 41.7793 355.665 49.3262 354.179C56.873 352.693 64.0625 349.893 71.395 347.507C80.8763 344.518 90.6206 342.437 100.496 341.292C108.3 340.392 116.219 340.063 123.766 337.677C131.312 335.291 138.431 330.391 141.318 323.076C131.97 313.489 117.019 312.332 103.712 313.36C86.6745 314.603 68.3505 309.06 51.6846 314.332Z" fill="url(#paint2_linear)"/>
<path d="M189.772 295.13C181.053 296.702 172.105 298.416 164.587 303.102C162 304.702 159.484 306.946 159.113 309.932C158.698 313.26 161.214 316.375 164.258 317.775C167.41 318.953 170.779 319.44 174.135 319.204L213.384 319.447L242.443 319.618C245.959 319.618 250.004 319.104 253.463 319.618C259.795 320.676 265.283 323.762 272.044 324.076C280.749 324.49 289.425 322.876 297.929 321.218C303.246 320.19 308.692 319.104 313.337 316.289C315.21 315.161 317.082 313.432 316.939 311.232C316.742 309.913 316.09 308.705 315.096 307.817C308.478 300.988 297.629 301.545 288.353 299.445C278.49 297.202 269.586 291.515 259.595 289.858C255.009 289.258 250.377 289.086 245.759 289.344C237.512 289.544 229.179 288.444 221.046 289.715C210.583 291.473 200.192 293.387 189.772 295.13Z" fill="url(#paint3_linear)"/>
<path d="M243.014 281.557C235.696 279.9 237.126 290.287 235.196 294.13C233.992 296.099 232.465 297.853 230.679 299.316C228.882 300.796 227.709 302.897 227.392 305.203C227.346 305.634 227.436 306.068 227.649 306.446C228.003 306.903 228.511 307.218 229.079 307.331C233.256 308.547 237.742 308.102 241.599 306.088C243.402 305.227 244.898 303.837 245.887 302.102C246.687 300.241 247.062 298.226 246.988 296.202C247.202 291.873 249.118 282.9 243.014 281.557Z" fill="#FDB9A9"/>
<path d="M236.482 302.902C236.482 302.902 215.657 303.788 224.476 310.332C233.295 316.875 246.488 308.746 247.803 307.188C249.118 305.631 248.046 303.145 248.046 303.145L236.482 302.902Z" fill="#3DAFE4"/>
<path d="M246.902 305.76C245.044 308.017 235.253 311.06 230.937 310.746C226.62 310.432 222.718 308.417 223.133 305.617C223.547 302.816 231.208 296.316 232.652 296.33C234.096 296.344 235.225 299.673 238.126 300.359C239.416 300.576 240.739 300.459 241.97 300.018C243.202 299.578 244.299 298.83 245.159 297.845C245.422 297.483 245.802 297.225 246.235 297.112C246.668 297 247.126 297.042 247.531 297.23C248.124 298.597 248.376 300.087 248.267 301.572C248.157 303.058 247.689 304.495 246.902 305.76Z" fill="white"/>
<path d="M268.114 285.658C260.795 283.958 262.225 294.33 260.295 298.173C259.095 300.15 257.568 301.908 255.778 303.374C253.991 304.861 252.82 306.959 252.491 309.26C252.446 309.691 252.535 310.126 252.748 310.503C253.102 310.961 253.61 311.276 254.178 311.389C258.356 312.597 262.839 312.152 266.699 310.146C268.494 309.274 269.987 307.886 270.987 306.16C271.786 304.299 272.162 302.283 272.087 300.259C272.302 295.887 274.217 286.958 268.114 285.658Z" fill="#FDB9A9"/>
<path d="M261.639 306.917C261.639 306.917 240.813 307.789 249.632 314.346C258.451 320.904 271.63 312.746 272.902 311.26C274.174 309.774 273.145 307.203 273.145 307.203L261.639 306.917Z" fill="#3DAFE4"/>
<path d="M272.001 309.746C270.143 312.018 260.367 315.046 256.036 314.746C251.705 314.446 247.817 312.418 248.232 309.617C248.646 306.817 256.307 300.302 257.751 300.331C259.195 300.359 260.338 303.674 263.225 304.345C264.517 304.562 265.842 304.445 267.076 304.004C268.309 303.564 269.409 302.816 270.272 301.831C270.532 301.471 270.91 301.212 271.341 301.1C271.771 300.988 272.227 301.029 272.63 301.216C273.223 302.583 273.475 304.073 273.366 305.559C273.256 307.044 272.788 308.481 272.001 309.746Z" fill="white"/>
<path d="M249.246 191.248L259.037 294.116L273.13 292.373C278.705 267.27 277.333 192.134 277.333 192.134L249.246 191.248Z" fill="#473F47"/>
<path d="M259.037 188.462L249.246 291.33L235.053 289.63C226.992 224.509 233.624 183.904 233.624 183.904L259.037 188.462Z" fill="#473F47"/>
<path d="M234.939 151.244C234.767 149.358 234.267 147.486 234.067 145.529C233.609 141.642 233.681 137.71 234.281 133.842C234.946 129.731 236.187 125.734 237.969 121.97C239.598 118.698 242.529 117.312 245.845 115.683C248.607 114.185 251.603 113.166 254.706 112.669C256.904 112.47 259.12 112.595 261.281 113.04C267.928 114.297 276.69 117.726 281.292 123.041C284.708 126.97 285.108 132.614 285.208 137.828C285.351 145.01 285.204 152.192 284.765 159.373C284.765 160.416 284.651 161.459 284.565 162.502C283.951 170.375 283.307 178.547 281.063 186.162C280.363 188.548 279.634 190.948 277.404 192.234C272.201 195.248 264.24 193.663 258.623 192.805C251.176 191.748 243.515 190.648 236.911 187.091C235.533 186.492 234.416 185.417 233.767 184.062C233.195 182.447 233.895 180.69 234.396 179.047C236.625 171.689 234.896 163.96 234.896 156.459C234.896 155.102 235.067 153.716 235.067 152.358C235.053 151.93 234.939 151.587 234.939 151.244Z" fill="white"/>
<path opacity="0.1" d="M253.034 122.184C253.775 120.779 254.656 119.453 255.664 118.226C255.792 118.06 255.959 117.927 256.15 117.841C256.324 117.798 256.505 117.798 256.679 117.841L263.054 118.855C263.352 118.869 263.64 118.968 263.883 119.141C264.084 119.315 264.233 119.543 264.312 119.798C264.704 121.333 264.489 122.96 263.711 124.341C261.854 127.911 259.657 131.293 257.151 134.442C255.718 136.369 254.497 138.442 253.506 140.629C253.034 141.729 252.877 142.972 252.42 144.072C251.962 145.172 250.99 144.6 250.176 144.415L240.342 142.343L235.425 141.314C234.71 141.172 234.153 141.172 234.524 140.329C234.655 140.081 234.833 139.861 235.049 139.682C235.265 139.503 235.514 139.368 235.782 139.286C236.555 139.09 237.345 138.966 238.141 138.914C239.772 138.512 241.301 137.772 242.629 136.742C243.679 136.065 244.678 135.311 245.616 134.485C249.161 131.242 250.776 126.441 253.034 122.184Z" fill="#020202"/>
<path d="M242.328 115.912C242.995 115.011 243.888 114.301 244.916 113.854C247.245 113.054 249.561 115.012 251.962 115.569C253.763 115.969 256.007 115.74 257.079 117.255C257.397 117.899 257.562 118.608 257.562 119.326C257.562 120.045 257.397 120.754 257.079 121.398C255.062 127.856 252.578 134.159 249.647 140.257C248.475 142.7 246.945 144.886 245.702 147.229C244.272 149.815 243.972 152.544 241.957 154.859C239.941 157.173 236.24 158.802 233.252 157.616C231.757 156.959 230.49 155.875 229.607 154.501C225.877 149.115 228.478 143.372 230.536 137.971C232.023 134.171 241.585 116.74 242.328 115.912Z" fill="white"/>
<path opacity="0.1" d="M274.474 193.091C271.973 193.548 269 195.349 266.413 194.863C263.541 193.49 260.439 192.661 257.265 192.42C252.977 191.92 248.503 189.977 244.401 188.662C242.669 188.266 241.063 187.446 239.727 186.276C237.226 183.676 237.969 179.504 238.484 175.932C239.225 170.71 239.114 165.403 238.155 160.216C237.78 157.774 237.143 155.379 236.254 153.073C235.468 151.273 234.238 150.101 234.539 147.958C234.796 146.072 236.097 143.858 238.212 143.672C239.332 143.711 240.422 144.046 241.371 144.643C244.056 146.086 246.949 147.102 249.947 147.658C253.593 148.108 257.292 147.515 260.614 145.947C263.936 144.379 266.745 141.9 268.714 138.8C270.672 135.714 272.616 121.47 278.09 123.441C279.859 124.195 281.442 125.326 282.728 126.755C284.015 128.184 284.973 129.876 285.537 131.713C286.608 135.424 287.053 139.287 286.852 143.143C286.738 153.144 284.751 163.36 283.479 173.289C282.979 177.047 282.393 191.005 277.418 192.234C276.404 192.434 275.446 192.891 274.474 193.091Z" fill="#020202"/>
<path d="M238.984 137.428C238.069 136.859 237.028 136.526 235.952 136.458C234.877 136.391 233.802 136.592 232.823 137.043C231.861 137.526 231.048 138.264 230.474 139.175C229.9 140.087 229.585 141.138 229.565 142.215C229.659 143.682 230.153 145.095 230.994 146.301C231.449 147.093 232.068 147.78 232.809 148.315C233.982 149.016 235.356 149.302 236.711 149.13C237.937 149.085 239.136 148.758 240.213 148.172C241.814 147.272 243.886 144.701 243.358 142.686C242.451 140.54 240.929 138.711 238.984 137.428Z" fill="#FDB9A9"/>
<path d="M283.079 125.07C289.11 135.071 291.211 146.829 293.198 158.316C293.546 159.718 293.609 161.176 293.384 162.602C293.009 163.867 292.309 165.012 291.354 165.922C290.398 166.832 289.22 167.476 287.938 167.789C285.373 168.39 282.72 168.53 280.106 168.203C274.488 167.846 267.828 167.36 263.068 164.102C261.424 162.988 259.981 161.602 258.308 160.531C256.676 159.574 254.981 158.729 253.234 158.002C249.903 156.456 246.726 154.6 243.743 152.458C242.717 151.829 241.863 150.955 241.256 149.915C240.285 147.972 241.042 145.629 241.8 143.629C241.939 143.108 242.252 142.65 242.686 142.329C243.281 142.086 243.948 142.086 244.544 142.329C252.583 144.72 260.779 146.553 269.071 147.815C271.344 148.172 270.343 145.672 270.043 144.372C269.543 142.552 269.142 140.706 268.843 138.843C268.548 136.16 268.916 133.447 269.912 130.939C270.909 128.431 272.504 126.205 274.56 124.456C275.618 123.471 276.957 122.842 278.39 122.655C279.299 122.702 280.186 122.942 280.995 123.358C281.803 123.774 282.514 124.358 283.079 125.07Z" fill="white"/>
<path d="M252.577 101.668C252.361 100.673 252.208 99.6665 252.119 98.653C251.633 94.3668 251.219 89.9092 253.32 86.2231C254.19 84.6737 255.456 83.3838 256.99 82.4861C258.524 81.5883 260.269 81.1151 262.046 81.1151C263.823 81.1151 265.569 81.5883 267.102 82.4861C268.636 83.3838 269.903 84.6737 270.772 86.2231C271.999 88.5324 272.53 91.1477 272.302 93.7525C272.069 96.3446 271.59 98.9087 270.872 101.41C270.186 104.068 268.442 105.697 267.442 108.14C267.101 109.191 266.941 110.292 266.97 111.397C267.114 113.047 267.114 114.705 266.97 116.355C265.341 117.425 263.478 118.087 261.539 118.284C260.63 118.269 259.728 118.114 258.866 117.826C258.379 117.73 257.948 117.448 257.665 117.041C257.537 116.684 257.507 116.299 257.579 115.926C257.579 115.569 257.665 115.226 257.665 114.869C257.865 113.087 257.837 111.286 257.579 109.511C257 108.124 256.044 106.927 254.821 106.054C253.635 104.86 252.851 103.327 252.577 101.668Z" fill="#FDB9A9"/>
<path opacity="0.1" d="M253.634 103.611C255.567 103.368 257.478 102.981 259.352 102.453C259.995 102.268 260.781 102.11 261.267 102.568C261.485 102.82 261.633 103.126 261.696 103.453C261.929 104.094 262.035 104.773 262.01 105.454C261.897 106.022 261.739 106.581 261.539 107.125C261.447 107.397 261.414 107.685 261.441 107.971C261.468 108.256 261.555 108.533 261.696 108.782C262.153 109.411 263.125 109.611 263.34 110.368C263.554 111.126 262.997 111.426 262.825 111.954C262.639 112.589 262.51 113.239 262.439 113.897C262.425 114.657 262.309 115.411 262.096 116.14C261.941 116.515 261.702 116.849 261.397 117.117C261.092 117.384 260.73 117.578 260.338 117.683C259.943 117.78 259.53 117.787 259.132 117.702C258.734 117.618 258.359 117.446 258.037 117.198C257.208 116.309 256.704 115.166 256.607 113.954L255.836 110.111C255.609 108.774 255.265 107.459 254.807 106.182C254.344 105.296 253.809 104.45 253.206 103.653L253.634 103.611Z" fill="#020202"/>
<path d="M131.956 177.332C131.956 177.332 132.842 180.918 124.337 183.604C115.833 186.29 112.688 177.332 112.688 177.332C112.688 177.332 128.811 171.06 131.956 177.332Z" fill="#2F3554"/>
<path d="M88.2181 267.956L89.2044 264.17L91.7772 254.412C91.852 253.948 92.0607 253.516 92.3775 253.169C92.7634 252.84 93.9641 256.541 94.4786 256.498C97.2854 256.338 100.101 256.544 102.854 257.112C103.598 257.255 100.582 299.202 100.325 303.317C99.7099 312.746 100.21 331.391 101.597 331.277C98.8381 331.505 93.1922 331.82 92.0059 330.577C89.8619 328.434 93.5353 314.618 89.5331 298.402C88.5488 294.416 88.0024 290.334 87.9037 286.229C87.7465 280.271 86.7459 273.757 88.2181 267.956Z" fill="#EFAC88"/>
<path d="M107.943 314.618C108.256 314.053 108.514 313.46 108.715 312.846C109.372 310.746 108.872 308.56 109.015 306.446C109.101 305.328 109.101 304.206 109.015 303.088C108.786 300.231 108.415 297.373 108.057 294.516C107.443 289.701 106.314 284.686 106.314 279.814C106.314 276.057 109.344 264.255 109.344 264.255L106.314 248.868H121.693C121.693 248.868 123.666 261.727 123.122 263.155C122.002 266.074 121.342 269.149 121.164 272.271C121.164 277.8 120.421 283.4 119.992 288.915C119.506 294.944 119.03 300.973 118.563 307.003C118.391 309.174 118.206 311.289 118.034 313.503C117.903 316.694 118.494 319.874 119.764 322.804C120.25 324.133 120.793 325.776 119.864 326.862C118.935 327.948 116.905 327.576 115.576 326.862C113.687 325.594 111.687 324.499 109.601 323.59C108.773 323.401 107.981 323.078 107.257 322.633C105.828 321.547 105.828 319.375 106.485 317.704C106.913 316.649 107.4 315.618 107.943 314.618Z" fill="#EFAC88"/>
<path d="M117.848 134.614C117.848 134.614 116.104 130.013 120.064 134.614C124.023 139.214 130.383 166.417 130.383 166.417C130.383 166.417 121.479 174.589 118.949 172.975C116.419 171.36 117.848 134.614 117.848 134.614Z" fill="#2F3554"/>
<path d="M114.032 91.2236C119.02 93.281 120.235 100.667 119.878 105.339C119.435 111.183 114.532 117.026 116.219 122.898C117.319 125.907 117.833 129.098 117.734 132.299C117.419 135.485 115.447 138.743 112.345 139.443C111.604 139.539 110.878 139.731 110.187 140.014C109.302 140.652 108.617 141.529 108.215 142.543C105.326 148.386 100.237 152.846 94.0641 154.944C87.9037 156.816 80.6142 155.373 76.2547 150.658C71.8953 145.944 71.2092 137.928 75.3542 133.014C76.5406 131.585 78.1414 130.285 78.2129 128.456C78.1705 127.612 78.0412 126.774 77.827 125.956C77.5977 124.372 77.8717 122.756 78.6102 121.336C79.3488 119.916 80.5146 118.763 81.9434 118.041C84.2589 116.926 87.2034 116.983 88.99 115.183C90.9911 113.112 90.5051 109.811 90.4194 106.94C89.5189 91.9237 100.853 85.8088 114.032 91.2236Z" fill="#8B2F0C"/>
<path d="M81.5289 216.694C80.3283 228.409 82.4151 240.396 84.5162 252.083C85.0022 254.826 85.6025 257.798 87.6464 259.684C89.2528 260.971 91.1619 261.827 93.1922 262.17C106.524 265.257 120.506 263.798 132.913 258.026L129.754 228.88C128.925 221.123 128.025 213.165 125.238 205.85C124.723 204.492 116.662 191.005 118.577 189.848C114.775 192.191 110.358 191.848 105.999 192.862C100.84 194.073 95.8756 195.996 91.2484 198.577C88.8773 199.622 86.8211 201.269 85.2841 203.355C83.747 205.44 82.7826 207.891 82.4866 210.464C82.0537 212.522 81.734 214.601 81.5289 216.694Z" fill="#3DAFE4"/>
<path d="M81.5289 216.694C80.3283 228.409 82.4151 240.396 84.5162 252.083C85.0022 254.826 85.6025 257.798 87.6464 259.684C89.2528 260.971 91.1619 261.827 93.1922 262.17C106.524 265.257 120.506 263.798 132.913 258.026L129.754 228.88C128.925 221.123 128.025 213.165 125.238 205.85C124.723 204.492 116.662 191.005 118.577 189.848C114.775 192.191 110.358 191.848 105.999 192.862C100.84 194.073 95.8756 195.996 91.2484 198.577C88.8773 199.622 86.8211 201.269 85.2841 203.355C83.747 205.44 82.7826 207.891 82.4866 210.464C82.0537 212.522 81.734 214.601 81.5289 216.694Z" fill="url(#paint4_linear)"/>
<path d="M113.775 122.184C113.775 122.184 109.901 127.099 109.887 130.113C109.846 132.11 109.573 134.095 109.072 136.028C109.072 136.028 108.458 139.629 106.456 138.228C104.455 136.828 97.4231 127.399 97.4231 127.399L105.099 117.169L113.775 122.184Z" fill="#EFAC88"/>
<path d="M125.695 209.007C125.695 209.007 124.123 191.505 121.207 184.49C120.398 181.948 120.202 179.25 120.635 176.618C121.221 170.417 123.108 164.474 124.123 158.345C124.432 155.602 124.228 152.826 123.523 150.158C122.455 144.843 121.207 139.567 119.778 134.328C119.652 133.654 119.362 133.021 118.935 132.485C118.447 132.042 117.865 131.715 117.234 131.528L109.587 128.67C110.387 131.128 111.145 133.871 110.044 136.214C109.775 136.898 109.267 137.461 108.615 137.8C107.185 138.386 105.756 137.443 104.613 136.371C102.882 134.689 101.544 132.644 100.696 130.385C100.267 129.206 99.9655 127.985 99.7958 126.742C99.6815 125.856 99.9387 124.57 99.267 123.956C98.1807 125.87 95.9366 126.813 94.2357 128.142C92.5348 129.47 90.3479 130.999 88.2897 132.428C86.5737 133.36 85.1751 134.783 84.2733 136.514C83.8305 137.977 83.8305 139.538 84.2733 141C84.6306 142.629 85.1881 144.215 85.4882 145.858C85.7744 147.947 85.9461 150.05 86.0028 152.158C86.3456 155.294 86.9044 158.401 87.6751 161.459C87.9652 163.328 88.1419 165.213 88.204 167.103C88.204 167.103 91.0626 177.732 90.4909 180.333C89.9191 182.933 84.5735 192.977 84.2733 197.377C83.9731 201.778 85.9885 211.022 85.9885 211.022C85.9885 211.022 90.934 211.35 96.4226 211.565C102.883 211.807 114.604 209.079 115.476 208.207C116.619 207.064 117.248 198.906 117.148 193.463C119.749 201.921 121.793 209.007 121.793 209.007H125.695Z" fill="#2F3554"/>
<path d="M87.6465 219.708C88.7185 220.022 89.0758 220.98 89.8762 222.18C90.948 223.849 91.9354 225.57 92.8349 227.337C92.958 227.461 93.0271 227.628 93.0271 227.802C93.0271 227.976 92.958 228.143 92.8349 228.266C92.7293 228.365 92.5933 228.425 92.449 228.438C91.5338 228.767 90.5481 228.851 89.5904 228.68C89.2228 230.968 89.5723 233.314 90.5909 235.395C90.8339 235.895 91.0912 236.567 90.6909 236.967C90.5052 237.11 90.2814 237.194 90.0477 237.21C88.0034 237.342 85.9678 236.843 84.2161 235.781C83.1992 235.334 82.2699 234.71 81.4718 233.938C80.3873 232.651 79.5927 231.145 79.142 229.523C79.142 228.492 79.2425 227.463 79.4421 226.452C79.4421 225.98 79.9281 219.822 80.071 219.822L86.7031 219.565C87.0228 219.567 87.3406 219.615 87.6465 219.708Z" fill="#FDC099"/>
<path d="M87.6893 217.265L88.2182 219.937L78.999 221.537V218.465L87.6893 217.265Z" fill="white"/>
<path d="M87.6894 182.133C87.6894 182.133 95.0218 164.503 94.0213 158.288C93.0208 152.073 88.8042 137.571 85.6883 137.7C82.5724 137.828 81.5861 141.986 81.5861 145.844C81.5861 149.701 75.3257 184.49 74.9255 187.705C74.5252 190.92 78.4559 220.565 78.4559 220.565L88.89 218.265L87.6894 182.133Z" fill="#2F3554"/>
<path d="M115.747 96.1242C115.915 96.2223 116.061 96.3536 116.176 96.5099C116.919 97.7946 117.404 99.2116 117.605 100.682C119.621 107.825 122.365 114.626 118.434 121.712C118.151 122.296 117.747 122.813 117.248 123.227C116.735 123.581 116.149 123.815 115.533 123.913C112.638 124.509 109.625 124.032 107.057 122.57C105.586 121.868 104.154 121.086 102.769 120.227C102.17 119.805 101.68 119.246 101.339 118.598C101.025 117.926 100.51 117.269 100.725 116.483C100.882 115.94 101.197 115.469 101.311 114.912C101.427 114.042 101.267 113.157 100.854 112.383C100.756 112.217 100.692 112.032 100.668 111.84C100.643 111.649 100.658 111.454 100.711 111.269C100.968 110.654 101.825 110.697 102.483 110.54C103.019 110.337 103.506 110.022 103.911 109.615C104.315 109.208 104.627 108.72 104.827 108.183C105.459 106.905 105.939 105.558 106.256 104.168C106.455 102.968 106.801 101.797 107.285 100.682C108.241 99.1496 109.621 97.9284 111.259 97.1671C112.388 96.5099 114.504 95.3527 115.747 96.1242Z" fill="#FDC099"/>
<path d="M118.934 106.511L119.578 105.954C119.578 105.954 119.763 106.354 119.992 106.311C120.195 106.256 120.392 106.179 120.578 106.082C120.578 106.082 120.221 106.597 119.978 106.64C119.641 106.682 119.3 106.682 118.963 106.64L118.934 106.511Z" fill="#8A3C1F"/>
<path d="M119.492 105.997L119.764 105.511C119.764 105.511 119.978 105.711 120.121 105.625C120.231 105.546 120.331 105.455 120.421 105.354C120.421 105.354 120.335 105.754 120.192 105.839C119.975 105.928 119.75 105.995 119.521 106.039L119.492 105.997Z" fill="#8A3C1F"/>
<path d="M150.894 152.258H124.152L101.225 181.233L126.453 180.218L150.894 152.258Z" fill="#3DAFE4"/>
<path d="M135 175.961C135.033 175.681 135.086 175.404 135.157 175.132C135.495 173.338 135.446 171.492 135.014 169.717C134.582 167.927 133.483 166.369 131.941 165.36C131.825 165.288 131.7 165.231 131.57 165.188C131.365 165.188 131.167 165.266 131.018 165.407C130.869 165.548 130.78 165.741 130.769 165.945C130.766 166.357 130.859 166.763 131.041 167.131C131.512 168.307 131.844 169.535 132.027 170.789L130.684 169.26C130.314 168.759 129.822 168.36 129.254 168.103C128.96 167.989 128.633 167.993 128.342 168.116C128.051 168.239 127.82 168.47 127.696 168.76C127.628 169.114 127.678 169.48 127.839 169.803L129.097 173.446C128.513 172.28 127.578 171.326 126.424 170.717C126.194 171.033 126.07 171.413 126.07 171.803C126.07 172.193 126.194 172.574 126.424 172.889C126.879 173.544 127.267 174.243 127.582 174.975C127.282 174.62 127.009 174.243 126.767 173.846C126.467 173.489 125.895 173.26 125.552 173.575C125.209 173.889 125.324 174.332 125.424 174.718C126.284 177.45 126.624 180.319 126.424 183.176L128.025 182.819C129.291 182.398 130.49 181.796 131.584 181.033C132.494 180.493 133.272 179.758 133.862 178.881C134.453 178.003 134.842 177.006 135 175.961Z" fill="#EFAC88"/>
<path d="M301.831 173.575C302.317 173.161 303.075 172.846 303.561 173.261C303.71 173.428 303.822 173.626 303.889 173.84C303.955 174.055 303.975 174.281 303.947 174.504V177.061C308.306 175.732 311.594 172.232 314.795 169.003C315.467 168.317 316.453 167.574 317.282 168.06C317.582 168.281 317.807 168.589 317.927 168.941C318.047 169.293 318.056 169.674 317.954 170.032C317.709 170.72 317.541 171.434 317.454 172.16C317.454 173.332 318.297 174.346 318.412 175.504C318.54 176.932 317.568 178.218 317.44 179.647V181.076C317.224 181.947 316.797 182.751 316.196 183.419C314.758 185.589 312.847 187.405 310.607 188.734C309.074 189.4 307.451 189.838 305.791 190.034L300.602 190.919C300.096 191.048 299.565 191.048 299.058 190.919C297.5 190.391 297.015 187.848 297.072 186.448C297.3 185.141 297.786 183.893 298.501 182.776C299.573 179.804 299.244 175.746 301.831 173.575Z" fill="#A67C52"/>
<path d="M148.293 157.83C147.95 157.287 147.321 156.773 146.735 157.016C146.543 157.132 146.377 157.288 146.249 157.473C146.121 157.657 146.033 157.867 145.992 158.088L145.206 160.516C141.432 157.959 139.331 153.644 137.244 149.601C136.801 148.744 136.086 147.758 135.143 147.972C134.802 148.102 134.509 148.333 134.305 148.635C134.1 148.936 133.994 149.294 134 149.658C134.019 150.385 133.966 151.113 133.842 151.83C133.499 152.944 132.413 153.673 131.927 154.687C131.384 156.002 131.927 157.545 131.627 158.973C131.527 159.431 131.327 159.873 131.255 160.402C131.198 161.297 131.37 162.192 131.756 163.002C132.475 165.505 133.756 167.812 135.5 169.746C136.766 170.833 138.181 171.732 139.703 172.418L144.405 174.804C144.841 175.062 145.33 175.218 145.834 175.261C147.478 175.261 148.693 172.946 149.065 171.589C149.236 170.282 149.164 168.955 148.85 167.674C148.593 164.46 150.094 160.731 148.293 157.83Z" fill="#A67C52"/>
<path d="M192.945 390.283C192.966 390.398 193.005 390.508 193.059 390.611C193.703 392.269 195.747 392.826 197.519 393.026C199.169 393.221 200.831 393.302 202.493 393.269C203.282 393.289 204.07 393.178 204.823 392.94C205.527 392.637 206.186 392.238 206.781 391.754L211.555 388.211C212.903 387.295 214.128 386.21 215.2 384.982C216.277 383.742 216.839 382.137 216.772 380.496C216.727 379.681 216.426 378.9 215.913 378.264C215.401 377.629 214.701 377.17 213.913 376.953C212.913 376.853 211.905 376.881 210.912 377.039C208.868 377.139 206.009 376.296 205.194 374.181C204.979 373.28 204.478 372.473 203.765 371.881C203.071 371.57 202.297 371.48 201.55 371.624C199.886 371.691 198.242 372.014 196.676 372.581C195.892 372.863 195.182 373.317 194.598 373.911C194.014 374.504 193.571 375.222 193.302 376.01C193.117 376.742 193.044 377.499 193.088 378.253C193.174 379.8 193.174 381.35 193.088 382.896C192.857 384.84 192.747 386.797 192.759 388.754C192.771 389.268 192.833 389.781 192.945 390.283Z" fill="#262836"/>
<path d="M239.341 390.883C236.125 392.354 232.816 393.614 229.436 394.655C228.08 395.24 226.561 395.326 225.148 394.898C224.585 394.616 224.09 394.214 223.7 393.72C223.31 393.227 223.033 392.653 222.89 392.04C222.588 390.831 222.463 389.585 222.518 388.34C222.518 386.268 223.376 384.668 223.704 382.696C224.004 380.982 224.247 379.253 224.49 377.539C224.833 375.081 225.148 372.624 225.462 370.152L234.038 371.995C234.939 372.181 235.796 375.653 236.325 376.381C236.734 376.918 237.256 377.359 237.853 377.672C238.451 377.986 239.11 378.164 239.784 378.196C241.214 378.267 242.743 377.596 244.215 377.839C245.163 378.072 246.008 378.609 246.623 379.367C247.237 380.125 247.586 381.064 247.617 382.039C247.604 383.013 247.392 383.975 246.994 384.864C246.596 385.754 246.02 386.552 245.301 387.211C243.851 388.513 242.194 389.566 240.399 390.326L239.341 390.883Z" fill="#262836"/>
<path d="M239.413 381.296C237.16 382.578 234.819 383.7 232.409 384.654L232.166 384.754C228.192 386.297 223.747 380.067 223.747 380.067C223.747 380.067 218.13 345.378 218.387 331.005C218.559 321.133 216.229 307.06 212.67 281.529C211.784 307.603 207.367 319.061 208.496 328.405C210.211 342.621 208.167 377.924 208.167 377.924C208.167 377.924 204.408 384.796 200.278 383.868H200.035C197.553 383.3 195.116 382.551 192.745 381.625C192.745 381.625 187.942 333.048 187.942 320.19C187.942 307.331 188.471 295.902 188.471 295.902L185.97 255.283L196.676 239.753L197.548 239.382L198.377 238.567L210.24 229.866C210.24 229.866 210.24 231.895 210.026 235.367L219.23 240.31L220.131 240.982L221.031 241.21L236.482 243.911C236.482 243.911 240.542 306.174 241.842 318.918C243.143 331.662 239.413 381.296 239.413 381.296Z" fill="#3DAFE4"/>
<path d="M239.413 381.296C237.16 382.578 234.819 383.7 232.409 384.654L232.166 384.754C228.192 386.297 223.747 380.067 223.747 380.067C223.747 380.067 218.13 345.378 218.387 331.005C218.559 321.133 216.229 307.06 212.67 281.529C211.784 307.603 207.367 319.061 208.496 328.405C210.211 342.621 208.167 377.924 208.167 377.924C208.167 377.924 204.408 384.796 200.278 383.868H200.035C197.553 383.3 195.116 382.551 192.745 381.625C192.745 381.625 187.942 333.048 187.942 320.19C187.942 307.331 188.471 295.902 188.471 295.902L185.97 255.283L196.676 239.753L197.548 239.382L198.377 238.567L210.24 229.866C210.24 229.866 210.24 231.895 210.026 235.367L219.23 240.31L220.131 240.982L221.031 241.21L236.482 243.911C236.482 243.911 240.542 306.174 241.842 318.918C243.143 331.662 239.413 381.296 239.413 381.296Z" fill="url(#paint5_linear)"/>
<path d="M226.606 135.557C227.578 136.528 229.036 137.528 228.635 138.814C228.421 139.5 227.692 139.9 227.206 140.386C226.508 141.09 225.958 141.927 225.587 142.847C225.216 143.767 225.033 144.752 225.048 145.743C225.108 147.681 224.832 149.614 224.233 151.458C223.898 152.383 223.255 153.165 222.412 153.672C221.569 154.18 220.577 154.382 219.602 154.244C218.473 153.93 217.344 152.958 216.257 153.416C215.428 153.773 215.171 154.844 214.742 155.559C214.126 156.48 213.263 157.209 212.252 157.664C211.242 158.118 210.123 158.28 209.025 158.13C206.838 157.814 204.729 157.092 202.807 156.002C201.985 155.686 201.274 155.134 200.764 154.416C200.432 153.727 200.351 152.944 200.535 152.201C200.935 149.93 202.507 148.058 203.779 146.101C206.138 142.483 207.553 138.332 207.896 134.028C208.125 131.028 207.896 127.727 209.825 125.456C212.441 122.298 218.759 122.327 222.003 124.641C225.734 127.027 223.618 132.456 226.606 135.557Z" fill="#A67C52"/>
<path d="M222.732 121.97C222.349 122.714 221.771 123.341 221.06 123.784C219.631 124.627 218.402 125.613 217.015 126.541C215.705 127.422 214.783 128.772 214.442 130.313C213.856 133.171 215.4 136.157 214.442 138.886C214.114 139.429 213.199 139.1 212.827 138.557C212.456 138.014 212.27 137.328 211.712 137C210.769 136.457 209.611 137.371 209.211 138.428C208.792 139.609 208.845 140.905 209.359 142.047C209.873 143.189 210.808 144.088 211.97 144.558C211.841 145.429 210.697 145.786 209.811 145.658C208.932 145.416 208.022 145.3 207.11 145.315C205.066 145.701 204.251 148.615 202.25 148.915C201.545 148.865 200.861 148.654 200.249 148.3C199.638 147.946 199.115 147.458 198.72 146.872L196.233 144.015C195.837 143.505 195.402 143.028 194.932 142.586C194.375 142.143 193.503 142.115 192.988 141.586C192.474 141.057 192.988 139.843 192.488 139.186C192.239 138.958 191.948 138.783 191.63 138.671C190.914 138.311 190.344 137.715 190.016 136.984C189.688 136.253 189.622 135.431 189.829 134.657C189.886 134.461 189.886 134.253 189.829 134.057C189.743 133.799 189.429 133.671 189.172 133.542C188.411 133.066 187.848 132.331 187.585 131.473C187.323 130.615 187.378 129.691 187.742 128.87C188.143 127.915 188.731 127.051 189.472 126.327C189.746 125.934 190.123 125.623 190.561 125.429C191 125.235 191.483 125.165 191.959 125.227L192.345 121.655C192.378 120.928 192.553 120.215 192.859 119.555C193.674 118.126 195.547 117.755 197.147 117.569L196.461 114.597C196.381 114.415 196.339 114.218 196.339 114.019C196.339 113.819 196.381 113.622 196.461 113.44C196.678 113.176 196.982 112.999 197.319 112.94C198.283 112.685 199.269 112.522 200.263 112.454C199.891 111.63 199.608 110.768 199.42 109.883C199.377 109.714 199.377 109.537 199.42 109.368C199.505 109.208 199.637 109.078 199.797 108.993C199.958 108.909 200.14 108.876 200.321 108.897C200.684 108.968 201.058 108.968 201.421 108.897C201.421 108.897 200.878 106.411 200.849 106.182C200.763 105.793 200.755 105.39 200.826 104.998C200.897 104.605 201.046 104.231 201.264 103.896C201.554 103.551 201.93 103.286 202.353 103.128C202.776 102.97 203.233 102.925 203.679 102.996C204.568 103.156 205.424 103.466 206.209 103.911C206.124 102.953 207.353 102.482 208.339 102.396C210.176 102.29 212.01 102.652 213.67 103.446C215.329 104.241 216.761 105.442 217.83 106.94C217.998 107.207 218.2 107.452 218.43 107.668C218.869 107.955 219.352 108.168 219.859 108.297C220.631 108.64 221.317 109.15 221.868 109.79C222.42 110.429 222.822 111.183 223.047 111.997C223.463 113.62 223.631 115.296 223.547 116.969C223.593 118.251 223.473 119.533 223.19 120.784C223.081 121.195 222.928 121.592 222.732 121.97Z" fill="#2F3554"/>
<path d="M209.168 152.887C211.438 153.843 213.644 154.945 215.771 156.187C216.427 156.535 216.998 157.023 217.444 157.616C217.675 157.945 217.818 158.329 217.858 158.729C217.898 159.129 217.834 159.533 217.672 159.902C217.072 160.931 215.729 160.545 214.685 160.188C209.868 158.273 204.68 158.102 199.734 158.116C199.394 158.166 199.046 158.122 198.728 157.989C198.411 157.855 198.136 157.637 197.933 157.359C197.813 157.027 197.768 156.673 197.803 156.322C197.837 155.971 197.95 155.632 198.134 155.33C200.749 150.144 204.951 150.973 209.168 152.887Z" fill="white"/>
<path d="M302.589 193.105C301.605 195.561 300.148 197.798 298.301 199.692C296.543 201.678 294.713 203.592 292.812 205.407C288.336 209.75 283.606 213.824 278.648 217.608C275.117 220.337 271.344 223.023 266.941 223.88C265.19 224.295 263.354 224.18 261.667 223.551C260.271 222.837 259.02 221.867 257.98 220.694C256.707 219.437 242.128 202.663 241.885 202.663C241.062 203.106 240.427 203.832 240.099 204.707C237.986 209.059 236.683 213.76 236.254 218.579C236.082 220.738 236.082 222.907 236.254 225.066C236.826 232.395 239.398 239.953 236.854 246.868C236.358 248.338 235.521 249.67 234.41 250.754C233.335 251.683 232.1 252.409 230.765 252.897C228.418 253.869 225.968 254.568 223.461 254.983C222.045 255.24 220.612 255.398 219.173 255.455C213.842 255.655 208.525 254.612 203.193 254.883C198.648 255.112 194.16 256.312 189.615 256.126C188.778 256.191 187.937 256.072 187.151 255.775C186.365 255.479 185.655 255.013 185.07 254.412C184.555 253.622 184.237 252.72 184.14 251.783C182.368 242.071 181.454 232.223 181.41 222.351C181.41 217.794 180.667 201.135 179.138 198.063C178.952 197.692 178.752 197.506 178.552 197.563C173.463 198.992 162.543 201.849 157.369 202.763C156.621 202.944 155.845 202.983 155.082 202.878C154.297 202.677 153.565 202.306 152.938 201.792C146.535 197.091 142.933 190.091 140.66 182.719C140.217 181.29 139.817 179.861 139.445 178.432C139.251 178.052 139.133 177.636 139.1 177.21C139.067 176.784 139.118 176.356 139.251 175.949C139.383 175.543 139.595 175.167 139.874 174.843C140.153 174.519 140.493 174.253 140.875 174.061C140.961 174.009 141.052 173.966 141.146 173.932L150.737 167.76L157.884 176.875C159.313 178.647 160.942 180.561 163.215 180.818C166.331 181.133 168.675 178.304 170.59 175.889C176.8 168.092 184.762 161.87 193.831 157.73C195.161 157.091 196.562 156.612 198.005 156.302L198.362 156.216C198.569 156.158 198.779 156.115 198.991 156.087C200.855 155.918 202.734 156.028 204.566 156.416C216.737 158.47 228.778 161.232 240.628 164.688C242.046 164.9 243.394 165.442 244.564 166.271C245.733 167.1 246.691 168.192 247.36 169.46C250.69 174.475 253.935 179.547 257.279 184.562C260.138 188.848 262.997 194.277 267.285 197.42C276.558 193.664 285.31 188.733 293.327 182.747C294.456 181.904 295.885 180.99 297.186 181.547C297.602 181.751 297.976 182.032 298.287 182.376C301.36 185.447 304.133 188.448 302.589 193.105Z" fill="white"/>
<path d="M371.954 159.516C370.683 160.6 369.151 161.334 367.509 161.645C366.008 161.705 364.512 161.442 363.121 160.874L341.853 153.73C340.249 154.979 339.178 156.789 338.854 158.795C338.531 160.802 338.979 162.856 340.109 164.545C341.91 167.046 345.011 168.232 347.913 169.274L362.492 174.518C365.357 175.7 368.374 176.475 371.454 176.818C375.742 177.104 379.93 175.732 384.004 174.375C388.363 172.946 393.137 171.132 395.224 167.031C397.311 162.931 395.796 157.53 396.41 152.744C396.825 149.63 398.197 146.644 398.14 143.5C398.068 140.814 395.924 136.771 392.722 137.328C389.964 137.814 388.12 142.615 386.662 144.629C382.559 150.321 377.597 155.343 371.954 159.516Z" fill="white"/>
<path d="M339.194 152.573C338.958 152.006 338.619 151.487 338.194 151.044C337.975 150.827 337.698 150.678 337.396 150.615C337.094 150.551 336.78 150.576 336.493 150.687C336.213 150.86 335.988 151.109 335.844 151.405C335.7 151.701 335.642 152.031 335.678 152.358C335.708 152.583 335.657 152.811 335.535 153.001C335.442 153.07 335.332 153.114 335.217 153.129C335.102 153.144 334.985 153.129 334.878 153.087C332.462 152.616 330.018 152.258 327.559 152.015C327.355 151.987 327.149 151.987 326.945 152.015C326.544 152.156 326.212 152.444 326.018 152.822C325.824 153.199 325.782 153.637 325.901 154.044C326.17 154.853 326.57 155.611 327.088 156.287C328.331 158.33 328.803 161.031 330.804 162.359C332.023 163.063 333.436 163.358 334.835 163.202C336.264 163.131 337.622 162.874 339.023 162.931C339.955 163.133 340.928 163.028 341.795 162.631C342.117 162.388 342.373 162.068 342.54 161.702C342.707 161.335 342.78 160.933 342.753 160.531C342.609 159.267 342.152 158.059 341.424 157.016C340.652 155.559 339.909 154.073 339.194 152.573Z" fill="#FDB9A9"/>
<path d="M398.511 312.632C390.364 310.789 391.965 322.347 389.821 326.633C388.467 328.799 386.767 330.73 384.79 332.348C382.946 334.148 381.216 336.349 381.116 338.906C381.059 339.4 381.159 339.9 381.402 340.335C381.815 340.832 382.385 341.174 383.017 341.306C387.678 342.648 392.676 342.136 396.968 339.877C398.977 338.916 400.647 337.366 401.756 335.434C402.647 333.361 403.067 331.117 402.985 328.862C403.171 324.119 405.301 314.146 398.511 312.632Z" fill="#FDB9A9"/>
<path d="M391.307 336.406C391.307 336.406 368.124 337.392 377.943 344.678C387.763 351.964 402.413 342.892 403.843 341.235C405.272 339.577 404.114 336.734 404.114 336.734L391.307 336.406Z" fill="#3DAFE4"/>
<path d="M402.842 339.606C400.77 342.121 389.878 345.507 385.061 345.164C380.244 344.821 375.914 342.564 376.385 339.449C376.857 336.334 385.376 329.091 386.977 329.105C388.577 329.119 389.835 332.834 393.065 333.605C394.509 333.837 395.987 333.696 397.361 333.196C398.734 332.696 399.957 331.853 400.913 330.748C401.204 330.348 401.625 330.06 402.105 329.935C402.584 329.81 403.092 329.855 403.542 330.062C404.657 331.705 404.915 337.092 402.842 339.606Z" fill="white"/>
<path d="M426.455 317.189C418.308 315.304 419.908 326.848 417.764 331.134C416.424 333.331 414.723 335.287 412.733 336.92C410.889 338.72 409.174 340.92 409.074 343.478C409.011 343.971 409.106 344.471 409.346 344.907C409.757 345.413 410.334 345.757 410.975 345.878C415.631 347.213 420.623 346.701 424.911 344.449C426.921 343.488 428.591 341.938 429.699 340.006C430.591 337.933 431.01 335.689 430.929 333.434C431.114 328.619 433.244 318.618 426.455 317.189Z" fill="#FDB9A9"/>
<path d="M419.251 340.863C419.251 340.863 396.067 341.835 405.887 349.121C415.706 356.408 430.371 347.364 431.786 345.692C433.201 344.021 432.058 341.178 432.058 341.178L419.251 340.863Z" fill="#3DAFE4"/>
<path d="M430.785 344.007C428.713 346.55 417.821 349.921 413.005 349.579C408.188 349.236 403.857 346.993 404.329 343.864C404.8 340.735 413.319 333.491 414.92 333.506C416.521 333.52 417.779 337.234 421.009 337.992C422.452 338.223 423.93 338.082 425.304 337.582C426.677 337.082 427.9 336.239 428.856 335.134C429.147 334.734 429.569 334.447 430.048 334.322C430.528 334.197 431.036 334.241 431.486 334.448C432.601 336.149 432.858 341.478 430.785 344.007Z" fill="white"/>
<path d="M405.458 212.093L416.349 326.662L432.072 324.719C438.275 296.773 436.76 213.122 436.76 213.122L405.458 212.093Z" fill="#473F47"/>
<path d="M416.349 208.993L405.458 323.562L389.735 321.619C380.759 249.125 388.149 203.992 388.149 203.992L416.349 208.993Z" fill="#473F47"/>
<path d="M389.521 167.56C389.335 165.46 388.778 163.374 388.549 161.231C388.036 156.906 388.118 152.532 388.792 148.229C389.531 143.649 390.912 139.195 392.894 135C394.709 131.371 397.982 129.828 401.656 128.013C404.734 126.344 408.074 125.209 411.532 124.656C413.978 124.431 416.444 124.566 418.851 125.056C426.24 126.484 436.003 130.285 441.048 136.114C444.85 140.5 445.336 146.772 445.422 152.573C445.584 160.583 445.417 168.584 444.922 176.575C444.922 177.732 444.779 178.89 444.693 180.047C444.007 188.819 443.264 197.92 440.791 206.393C440.005 209.05 439.176 211.722 436.717 213.15C431 216.522 422.067 214.665 415.82 213.793C407.516 212.607 398.997 211.379 391.636 207.364C390.106 206.69 388.866 205.495 388.134 203.992C387.491 202.192 388.277 200.235 388.835 198.406C391.322 190.219 389.392 181.619 389.392 173.261C389.392 171.746 389.592 170.203 389.592 168.689C389.578 168.317 389.521 167.931 389.521 167.56Z" fill="white"/>
<path opacity="0.1" d="M412.733 206.021C412.677 205.144 412.891 204.272 413.348 203.521C414.291 202.364 416.092 202.606 417.536 202.964L426.869 205.278C430.4 206.15 435.817 209.564 436.732 213.122C440.319 210.607 441.248 206.378 441.92 202.049C442.592 197.72 442.62 189.277 443.349 184.905C438.785 188.187 433.347 190.038 427.727 190.219C422.424 190.362 415.763 190.219 413.834 184.505C411.618 177.818 410.846 170.803 409.374 163.945C409.378 163.787 409.346 163.63 409.28 163.485C409.213 163.341 409.115 163.214 408.993 163.114C408.87 163.013 408.726 162.942 408.572 162.905C408.417 162.869 408.257 162.868 408.102 162.902L387.949 163.117C387.634 163.102 387.321 163.16 387.034 163.288C386.448 163.645 386.448 164.488 386.548 165.16C387.297 169.712 389.582 173.871 393.023 176.947C394.666 178.375 395.738 179.318 396.053 181.447C396.439 183.962 396.339 186.633 396.596 189.191C397.037 194.565 398.215 199.853 400.098 204.907C402.985 212.093 412.19 217.708 412.733 206.021Z" fill="#020202"/>
<path d="M407.23 211.836H377.229L373.498 165.203H403.514L407.23 211.836Z" fill="#3DAFE4"/>
<path d="M405.486 113.154C405.502 110.953 405.641 108.754 405.901 106.568C406.101 104.668 406.401 102.753 406.773 100.853C406.792 100.302 406.93 99.762 407.176 99.2689C407.423 98.7759 407.773 98.3417 408.202 97.9957C411.146 96.1799 414.549 95.2476 418.007 95.3097C420.073 94.9849 422.184 95.4931 423.875 96.7227C425.566 97.9524 426.7 99.8029 427.026 101.868C427.095 102.273 427.129 102.685 427.127 103.096C427.641 107.911 426.398 112.711 425.697 117.498C425.152 121.205 424.956 124.955 425.111 128.699C423.299 129.903 421.217 130.639 419.051 130.842C418.039 130.841 417.034 130.672 416.078 130.342C415.809 130.292 415.554 130.189 415.326 130.04C415.097 129.89 414.901 129.696 414.749 129.47C414.601 129.073 414.567 128.643 414.648 128.227C414.703 127.839 414.736 127.448 414.749 127.056C414.906 124.866 414.863 122.666 414.62 120.484C414.627 120.392 414.613 120.3 414.581 120.214C414.549 120.127 414.499 120.049 414.434 119.984C414.285 119.941 414.126 119.941 413.977 119.984H413.362C412.273 120.069 411.178 120.069 410.089 119.984C408.784 119.841 407.573 119.238 406.673 118.283C405.639 116.787 405.214 114.953 405.486 113.154Z" fill="#FDB9A9"/>
<path d="M409.932 99.0386C409.172 99.3529 408.319 99.3529 407.559 99.0386C406.762 98.6125 406.102 97.9683 405.658 97.1813C404.766 95.8394 404.439 94.1997 404.75 92.6186C405.06 91.0375 405.982 89.6428 407.316 88.7376C408.343 88.0145 409.504 87.5031 410.731 87.2333C411.958 86.9634 413.227 86.9406 414.463 87.166C415.113 86.7517 415.844 86.4791 416.607 86.3659C419.556 85.4684 422.675 85.2776 425.711 85.8087C427.434 86.309 429.051 87.1174 430.485 88.1947C431.875 89.1121 433.058 90.3091 433.959 91.7093C434.828 93.5048 435.375 95.4393 435.574 97.4242C436.039 99.5464 436.293 101.71 436.331 103.882C436.327 104.831 436.148 105.77 435.803 106.654C435.372 107.63 434.756 108.513 433.987 109.254C432.86 110.386 431.574 111.348 430.171 112.111C429.199 112.654 428.07 113.211 427.741 114.283C427.643 114.782 427.595 115.289 427.598 115.797C427.541 116.545 427.24 117.253 426.741 117.812C426.397 118.183 425.811 119.084 425.311 119.241C424.811 119.398 424.382 118.769 424.239 118.255C423.627 116.089 423.779 113.779 424.668 111.711C425.298 110.703 425.666 109.554 425.74 108.368C425.626 107.211 424.039 106.282 423.282 106.939C422.524 107.597 422.381 109.311 421.438 108.982C422.51 105.639 421.123 101.439 417.907 100.124C416.188 99.6061 414.4 99.3555 412.604 99.3815C411.748 99.2081 410.877 99.1124 410.003 99.0958L409.932 99.0386Z" fill="#DD8049"/>
<path d="M413.391 119.898C415.932 119.418 418.417 118.68 420.809 117.698C421.023 125.427 414.734 127.027 414.734 127.027C414.891 124.837 414.848 122.637 414.606 120.455C414.612 120.271 414.545 120.091 414.42 119.955C414.27 119.912 414.112 119.912 413.962 119.955H413.391V119.898Z" fill="#DE9F93"/>
<path d="M450.553 163.588L454.126 179.218C454.497 180.518 454.656 181.869 454.598 183.219C454.341 185.748 452.611 187.833 450.953 189.748C448.914 192.449 446.352 194.713 443.421 196.406C441.387 197.304 439.227 197.882 437.017 198.12C431.178 199.005 425.267 199.335 419.365 199.106C418.898 199.117 418.434 199.024 418.007 198.835C417.582 198.561 417.228 198.189 416.978 197.749C414.913 194.632 413.138 191.332 411.675 187.891C416.404 184.707 421.597 182.273 427.069 180.676C428.173 180.47 429.204 179.977 430.057 179.247C430.613 178.551 430.982 177.725 431.129 176.847C433.458 166.846 428.084 155.702 432.386 146.372C434.831 141.057 440.048 135.357 443.821 142.457C447.38 148.929 448.924 156.473 450.553 163.588Z" fill="white"/>
<path d="M407.573 188.005C406.929 187.52 406.245 187.09 405.529 186.719C405.167 186.538 404.764 186.452 404.359 186.469C403.953 186.487 403.559 186.607 403.214 186.819C402.899 187.048 402.656 187.419 402.27 187.548C402.016 187.605 401.753 187.605 401.499 187.548L396.725 187.062C396.347 186.969 395.953 186.964 395.574 187.048C395.195 187.132 394.84 187.303 394.538 187.548C393.923 188.248 394.295 189.348 394.709 190.191C395.934 192.676 397.299 195.089 398.797 197.42C399.069 197.897 399.412 198.33 399.812 198.706C400.362 199.12 400.996 199.408 401.67 199.549C404.13 200.118 406.699 200.009 409.103 199.235C411.49 198.452 413.717 197.247 415.677 195.677C415.959 195.47 416.205 195.219 416.406 194.934C416.604 194.583 416.721 194.193 416.749 193.791C416.978 191.948 416.392 188.976 413.991 189.105C411.789 189.493 409.52 189.104 407.573 188.005Z" fill="#FDB9A9"/>
<path d="M106.414 318.118C106.512 317.96 106.657 317.835 106.828 317.761C107.228 317.632 107.6 317.99 107.871 318.304C110.344 321.161 114.046 322.59 117.591 323.876C117.805 323.947 118.077 324.019 118.248 323.876C118.42 323.733 118.42 323.576 118.491 323.433C118.622 323.256 118.811 323.129 119.024 323.075C119.238 323.02 119.463 323.041 119.663 323.133C120.052 323.341 120.405 323.611 120.707 323.933C122.136 325.248 124.18 325.776 125.752 326.948C126.171 327.206 126.488 327.599 126.653 328.062C126.707 328.317 126.696 328.581 126.621 328.831C126.546 329.081 126.409 329.308 126.224 329.491C125.834 329.877 125.335 330.136 124.795 330.234C123.812 330.436 122.803 330.474 121.807 330.348C116.862 329.977 111.936 329.453 107.028 328.776C106.645 328.749 106.271 328.648 105.928 328.476C105.549 328.172 105.255 327.776 105.073 327.326C104.89 326.876 104.825 326.387 104.884 325.905C104.939 324.629 105.087 323.359 105.327 322.104C105.297 320.699 105.674 319.314 106.414 318.118Z" fill="#262836"/>
<path d="M92.4347 326.99C93.0017 327.32 93.6284 327.533 94.2785 327.619C95.401 327.897 96.5688 327.941 97.7089 327.748C98.2763 327.642 98.8015 327.376 99.222 326.981C99.6426 326.586 99.9409 326.078 100.082 325.519C100.082 325.176 100.339 324.69 100.639 324.847C100.706 324.895 100.76 324.959 100.796 325.033C101.586 326.563 102.007 328.255 102.026 329.976C102.186 330.895 102.107 331.84 101.797 332.72C101.546 333.204 101.188 333.624 100.749 333.949C100.311 334.273 99.8035 334.493 99.2669 334.591C98.2042 334.791 97.1136 334.791 96.0509 334.591C95.1361 334.448 94.2357 334.277 93.3495 334.048C92.9538 333.993 92.5794 333.835 92.2632 333.591C91.9961 333.336 91.7908 333.023 91.6629 332.677C90.9332 330.976 90.6621 329.114 90.8767 327.276C90.9156 326.886 90.9824 326.499 91.0768 326.119C91.0768 325.947 91.1912 325.19 91.4342 325.276C91.6771 325.362 91.62 325.462 91.62 325.633C91.6243 325.814 91.6581 325.992 91.72 326.162C91.8725 326.502 92.1209 326.79 92.4347 326.99Z" fill="#262836"/>
<path d="M250.004 82.4941C249.765 81.4256 249.944 80.306 250.504 79.3652C250.971 78.8229 251.58 78.422 252.262 78.208C252.973 77.9391 253.711 77.7475 254.464 77.6365C254.838 77.6032 255.202 77.4964 255.536 77.3221C255.805 77.0934 256.037 76.8233 256.222 76.5221C256.777 75.9093 257.468 75.4361 258.241 75.1407C259.013 74.8453 259.844 74.736 260.667 74.8219C262.311 74.8219 263.926 75.3077 265.569 75.3791C267.213 75.4505 269.2 75.1505 270.686 76.0649C271.823 76.9152 272.603 78.1578 272.873 79.5509C273.45 79.4696 274.037 79.6072 274.517 79.9367C275.417 80.7654 274.517 82.4512 275.303 83.4371C275.675 83.9085 276.332 84.1086 276.732 84.6086C276.988 85.0853 277.064 85.6379 276.947 86.1659C276.909 86.7474 276.828 87.3252 276.704 87.8947C276.304 89.4662 275.275 90.7521 274.789 92.338C274.546 93.1666 274.488 94.0381 274.288 94.8668C273.729 96.7024 272.832 98.4176 271.644 99.9245C272.47 96.1675 272.562 92.2866 271.916 88.4947C271.928 88.3199 271.887 88.1454 271.798 87.9947C271.708 87.844 271.575 87.7243 271.415 87.6518C271.187 87.5977 270.946 87.6335 270.744 87.7518C266.938 89.2547 262.735 89.421 258.823 88.2233C257.711 87.7287 256.489 87.5318 255.278 87.6518C254.791 87.7973 254.314 87.9739 253.849 88.1804C253.361 88.366 252.822 88.366 252.334 88.1804C252.233 88.3901 252.18 88.6193 252.177 88.8519C251.248 88.6376 251.305 87.2946 251.047 86.5517C250.571 85.2354 250.222 83.8768 250.004 82.4941Z" fill="#2F3554"/>
<path d="M274.689 96.1098C274.786 96.2559 274.849 96.4219 274.874 96.5955C275.071 97.577 274.893 98.5966 274.374 99.453C273.87 100.32 273.119 101.016 272.216 101.453C271.982 101.589 271.722 101.672 271.453 101.696C271.184 101.721 270.912 101.687 270.658 101.596C270.41 101.426 270.204 101.201 270.058 100.938C269.912 100.675 269.828 100.382 269.815 100.082C269.678 99.4727 269.677 98.8414 269.81 98.2319C269.944 97.6224 270.209 97.0493 270.586 96.5527C270.911 96.2256 271.299 95.9682 271.727 95.7962C272.154 95.6243 272.613 95.5414 273.073 95.5526C273.367 95.5225 273.664 95.5568 273.942 95.653C274.221 95.7492 274.476 95.9051 274.689 96.1098Z" fill="#FDB9A9"/>
<path d="M260.481 109.683C260.552 110.268 260.095 110.783 260.038 111.369C259.981 111.954 260.038 112.654 260.038 113.297C260.008 114.109 259.74 114.894 259.266 115.555C258.698 116.128 257.979 116.529 257.193 116.712C255.584 117.314 253.88 117.623 252.162 117.626C251.451 117.586 250.745 117.495 250.047 117.355C248.918 117.169 245.987 117.269 245.759 115.726C245.828 114.88 246.061 114.055 246.445 113.297C246.574 112.883 246.688 112.469 246.802 112.054C246.917 111.64 247.074 111.026 247.188 110.511C247.731 108.054 248.103 105.311 250.047 103.639C250.533 103.196 251.347 102.882 251.791 103.368C252.234 103.853 252.076 104.554 252.591 104.682C252.772 104.697 252.953 104.668 253.12 104.596C255.032 103.728 257.127 103.34 259.223 103.468C259.616 103.489 259.998 103.608 260.333 103.816C260.667 104.023 260.944 104.311 261.138 104.654C261.696 106.082 259.866 107.511 260.309 108.94C260.395 109.18 260.453 109.429 260.481 109.683Z" fill="#FDB9A9"/>
<path d="M256.25 164.603C255.867 164.217 255.446 163.873 254.992 163.574C255.278 168.874 256.15 174.418 259.395 178.618C260.24 179.58 261.027 180.592 261.753 181.647C263.182 184.047 263.297 187.162 265.126 189.276C266.733 190.817 268.783 191.816 270.986 192.134C272.908 192.803 275.012 192.722 276.875 191.905C278.358 190.794 279.453 189.244 280.006 187.476C281.249 184.519 283.536 180.247 281.649 177.047C280.306 174.775 276.075 172.975 273.502 172.975C269.969 172.077 266.518 170.887 263.182 169.417C261.514 168.845 259.95 168.005 258.551 166.931C257.722 166.231 257.036 165.36 256.25 164.603Z" fill="white"/>
<path opacity="0.1" d="M180.467 186.49C179.468 189.725 179.037 193.109 179.195 196.491C179.2 197.005 179.147 197.518 179.038 198.02C178.852 197.649 178.652 197.463 178.452 197.52C173.363 198.949 162.443 201.806 157.269 202.721C156.521 202.901 155.745 202.94 154.982 202.835C154.197 202.634 153.465 202.263 152.838 201.749C146.435 197.049 142.833 190.048 140.56 182.676C140.72 181.399 141.003 180.141 141.403 178.918C144.448 180.561 146.035 183.933 147.936 186.833C149.767 189.653 152.024 192.174 154.625 194.305C155.142 194.784 155.756 195.145 156.426 195.363C157.218 195.515 158.036 195.481 158.813 195.263C166.588 193.791 174.821 192.02 180.467 186.49Z" fill="#020202"/>
<path opacity="0.1" d="M292.812 205.435C288.336 209.779 283.606 213.853 278.648 217.636C275.117 220.365 271.344 223.051 266.941 223.909C265.19 224.323 263.354 224.209 261.667 223.58C260.271 222.865 259.02 221.896 257.98 220.723C256.707 219.465 242.128 202.692 241.885 202.692C241.062 203.134 240.427 203.86 240.099 204.735C237.986 209.088 236.683 213.789 236.254 218.608C236.082 220.767 236.082 222.936 236.254 225.094C236.825 232.424 239.398 239.982 236.854 246.897C236.358 248.367 235.52 249.699 234.41 250.783C233.33 251.698 232.096 252.414 230.765 252.897C227.892 254.038 224.958 255.016 221.975 255.826C220.529 256.258 219.003 256.351 217.515 256.098C216.658 255.926 214.499 254.397 213.899 254.469C216.081 254.154 218.132 253.237 219.821 251.822C221.511 250.406 222.771 248.547 223.461 246.454C224.476 243.153 223.976 239.61 223.99 236.153C224.115 232.142 224.594 228.15 225.419 224.223L228.478 207.493C229.507 201.778 231.594 193.663 237.54 191.091C238.727 190.577 240.027 191.42 241.056 192.22C247.946 197.62 254.964 203.149 259.909 210.393C261.338 212.407 262.639 214.679 264.898 215.593C267.156 216.508 270.115 215.693 272.559 214.708C276.204 213.237 279.752 211.533 283.179 209.607C285.751 208.178 289.153 204.935 292.355 205.321C292.511 205.344 292.664 205.382 292.812 205.435Z" fill="#020202"/>
</g>
<defs>
<linearGradient id="paint0_linear" x1="202.807" y1="297.859" x2="202.807" y2="424.972" gradientUnits="userSpaceOnUse">
<stop offset="0.01"/>
<stop offset="0.08" stop-opacity="0.69"/>
<stop offset="0.21" stop-opacity="0.32"/>
<stop offset="1" stop-opacity="0"/>
</linearGradient>
<linearGradient id="paint1_linear" x1="35761.4" y1="4563.3" x2="35910.8" y2="1172.28" gradientUnits="userSpaceOnUse">
<stop offset="0.01"/>
<stop offset="0.08" stop-opacity="0.69"/>
<stop offset="0.21" stop-opacity="0.32"/>
<stop offset="1" stop-opacity="0"/>
</linearGradient>
<linearGradient id="paint2_linear" x1="7515.27" y1="4970.94" x2="7664.98" y2="1575.69" gradientUnits="userSpaceOnUse">
<stop offset="0.01"/>
<stop offset="0.08" stop-opacity="0.69"/>
<stop offset="0.21" stop-opacity="0.32"/>
<stop offset="1" stop-opacity="0"/>
</linearGradient>
<linearGradient id="paint3_linear" x1="-247960" y1="-5656.62" x2="-248059" y2="318.508" gradientUnits="userSpaceOnUse">
<stop offset="0.01"/>
<stop offset="0.08" stop-opacity="0.69"/>
<stop offset="0.21" stop-opacity="0.32"/>
<stop offset="1" stop-opacity="0"/>
</linearGradient>
<linearGradient id="paint4_linear" x1="2762.16" y1="10500.8" x2="5420.02" y2="10633.7" gradientUnits="userSpaceOnUse">
<stop offset="0.01"/>
<stop offset="0.08" stop-opacity="0.69"/>
<stop offset="0.21" stop-opacity="0.32"/>
<stop offset="1" stop-opacity="0"/>
</linearGradient>
<linearGradient id="paint5_linear" x1="6926.51" y1="21794.9" x2="19586.9" y2="15379.4" gradientUnits="userSpaceOnUse">
<stop offset="0.01"/>
<stop offset="0.08" stop-opacity="0.69"/>
<stop offset="0.21" stop-opacity="0.32"/>
<stop offset="1" stop-opacity="0"/>
</linearGradient>
<clipPath id="clip0">
<rect width="566" height="420" fill="white"/>
</clipPath>
</defs>
</svg>
